<?xml version="1.0" encoding="utf-8"?>
<!-- Generator: Adobe Illustrator 13.0.2, SVG Export Plug-In . SVG Version: 6.00 Build 14948)  -->
<!DOCTYPE svg PUBLIC "-//W3C//DTD SVG 1.1//EN" "http://www.w3.org/Graphics/SVG/1.1/DTD/svg11.dtd">
<svg version="1.1" id="Ebene_1" xmlns="http://www.w3.org/2000/svg" xmlns:xlink="http://www.w3.org/1999/xlink" x="0px" y="0px"
	 width="472.579px" height="304.628px" viewBox="0 0 472.579 304.628" enable-background="new 0 0 472.579 304.628"
	 xml:space="preserve">
<g>
	<path fill-rule="evenodd" clip-rule="evenodd" fill="#1A171B" d="M118.149,0C103.428,0,91.83,2.072,80.454,6.768
		C58.819,15.746,48.113,30.11,48.113,50.414c0,14.364,5.13,24.585,16.505,33.563c12.491,9.944,29.665,14.641,52.861,14.641
		c18.29,0,35.687-2.763,51.522-8.563V44.198h-59.998l4.014,15.746h23.643v21.823c-5.13,1.657-10.706,2.348-17.621,2.348
		c-10.036,0-18.512-1.933-24.311-5.386c-7.807-4.834-11.599-13.674-11.599-27.347c0-14.365,2.677-24.724,13.16-30.939
		c5.353-3.177,13.16-4.834,22.304-4.834c11.821,0,22.304,2.348,32.341,7.458l16.505-12.017C153.835,3.729,136.884,0,118.149,0
		L118.149,0z"/>
	<polygon fill-rule="evenodd" clip-rule="evenodd" fill="#1A171B" points="210.173,97.512 241.399,97.512 241.399,55.11 
		280.877,55.11 280.877,39.364 241.399,39.364 241.399,17.403 290.69,17.403 294.26,1.796 210.173,1.796 210.173,97.512 	"/>
	<path fill-rule="evenodd" clip-rule="evenodd" fill="#1A171B" d="M328.353,17.542h47.73c9.368,0,15.836-0.69,15.836-0.69
		s-5.353,4.281-9.591,8.701l-57.099,58.424v13.536h96.801l8.029-15.745h-52.192c-6.245,0-15.39,0.552-15.39,0.552
		s4.684-3.314,8.029-6.768l57.545-60.082V1.52h-92.785L328.353,17.542L328.353,17.542z"/>
	<path fill-rule="evenodd" clip-rule="evenodd" fill="#005C9C" d="M472.579,200.805C328.124,165.525,143.558,166.104,0,201.772
		C120.543,143.283,350.278,142.726,472.579,200.805L472.579,200.805z"/>
	<path fill-rule="evenodd" clip-rule="evenodd" fill="#1A171B" d="M49.072,269.145v34.883h11.311v-12.812h6.221
		c6.221,0,8.645-0.4,11.23-1.15c6.14-1.802,9.694-5.605,9.694-10.21c0-4.004-2.828-7.206-8.079-9.008
		c-3.151-1.102-6.06-1.702-15.593-1.702H49.072L49.072,269.145z M60.383,274.8h7.19c2.423,0,4.362,0.501,5.655,1.451
		c1.293,0.901,1.939,2.152,1.939,3.754c0,1.651-0.404,2.752-1.374,3.703c-1.535,1.451-2.908,1.802-7.513,1.802h-5.897V274.8
		L60.383,274.8z"/>
	<path fill-rule="evenodd" clip-rule="evenodd" fill="#1A171B" d="M143.448,290.314c0-8.958-8.645-13.462-20.924-13.462
		c-13.088,0-21.167,5.104-21.167,13.912c0,8.008,7.756,13.662,21.571,13.662C136.582,304.427,143.448,298.723,143.448,290.314
		L143.448,290.314z M131.087,290.314c0,7.106-3.07,9.409-8.725,9.409c-6.059,0-8.967-2.002-8.967-8.759
		c0-6.105,2.585-9.358,8.967-9.358C129.068,281.606,131.087,284.859,131.087,290.314L131.087,290.314z"/>
	<path fill-rule="evenodd" clip-rule="evenodd" fill="#1A171B" d="M194.956,277.202h-35.224v5.305h11.229v21.521h11.068v-21.521
		h10.825C192.854,282.507,195.036,277.202,194.956,277.202L194.956,277.202z"/>
	<path fill-rule="evenodd" clip-rule="evenodd" fill="#1A171B" d="M246.511,295.219c0-4.104-4.686-6.706-12.28-7.807l-5.816-0.852
		c-3.636-0.5-4.524-1.101-4.524-2.402c0-1.501,2.423-2.451,5.817-2.451s7.19,0.649,11.31,2.001l5.09-4.654
		c-4.039-1.651-10.745-2.752-16.643-2.752c-10.421,0-17.612,3.603-17.612,8.558c0,1.501,0.565,2.853,1.777,4.154
		c1.616,1.801,4.767,3.053,9.452,3.803l5.494,0.801c3.958,0.501,5.655,1.552,5.655,3.003c0,1.852-2.585,2.652-7.675,2.652
		c-4.766,0-8.402-0.801-12.926-2.002l-3.555,5.104c5.251,1.552,10.664,2.253,15.916,2.253
		C238.352,304.628,246.511,300.924,246.511,295.219L246.511,295.219z"/>
	<path fill-rule="evenodd" clip-rule="evenodd" fill="#1A171B" d="M303.799,290.864c0-8.107-6.463-12.661-17.047-13.411
		c-1.857-0.151-6.059-0.151-8.887-0.151h-9.533v26.726h11.23c3.312,0,5.493,0,7.352-0.15
		C296.608,303.126,303.799,298.672,303.799,290.864L303.799,290.864z M291.762,291.415c0,5.806-3.394,7.407-7.271,7.407h-5.171
		v-16.615h3.959C289.983,282.207,291.761,285.561,291.762,291.415L291.762,291.415z"/>
	<path fill-rule="evenodd" clip-rule="evenodd" fill="#1A171B" d="M361.413,304.027l-15.027-26.976h-10.987l-15.996,26.976h11.391
		l3.071-5.706h12.845l3.312,5.706H361.413L361.413,304.027z M344.285,293.367h-7.836c1.292-2.853,3.15-7.257,4.039-9.959
		C341.296,286.11,343.073,290.564,344.285,293.367L344.285,293.367z"/>
	<path fill-rule="evenodd" clip-rule="evenodd" fill="#1A171B" d="M428.489,304.027l-4.443-26.825h-13.572l-5.736,12.161
		c-0.727,1.552-1.293,3.153-1.858,4.805c-0.484-1.701-0.97-2.803-1.777-4.554l-5.494-12.412h-13.491l-4.686,26.825h10.906
		l1.374-12.812c0.242-1.651,0.403-3.553,0.484-5.404c0.646,2.151,1.535,4.204,2.1,5.404l5.817,12.763h9.21l6.464-13.163
		c0.727-1.401,1.615-2.853,2.181-4.403c0.162,1.852,0.323,3.152,0.484,4.554l1.455,13.062H428.489L428.489,304.027z"/>
</g>
<g>
	<path fill="#1A171B" d="M48.589,221.766h3.521v12.631h12.718v-12.631h3.609v30.189h-3.609v-14.61H52.109v14.61h-3.521V221.766z"/>
	<path fill="#1A171B" d="M93.909,247.51l1.319,2.201c-1.936,1.76-4.576,2.728-7.393,2.728c-6.073,0-9.726-4.4-9.726-11.661
		c0-3.697,0.748-6.117,2.641-8.273c1.76-2.068,3.916-3.08,6.557-3.08c2.377,0,4.488,0.836,5.941,2.42
		c1.892,1.936,2.42,4.004,2.508,9.241v0.484H82.071v0.528c0,2.068,0.264,3.652,1.012,4.797c1.232,1.892,3.257,2.684,5.457,2.684
		C90.652,249.578,92.368,248.918,93.909,247.51z M82.071,238.973h10.033c-0.044-2.377-0.353-3.828-1.012-4.885
		c-0.749-1.188-2.289-1.936-3.961-1.936C84.007,232.152,82.247,234.439,82.071,238.973z"/>
	<path fill="#1A171B" d="M105.478,220.666l3.564-0.704c0.572,1.673,0.528,4.137,0.528,6.776v20.815c0,1.716,0.265,2.2,1.232,2.2
		c0.132,0,0.44-0.088,0.44-0.088l0.704,2.244c-0.881,0.396-1.276,0.484-2.2,0.484c-1.101,0-1.937-0.309-2.597-0.924
		c-0.792-0.704-1.057-1.541-1.057-3.125v-21.607C106.094,223.438,106.006,222.206,105.478,220.666z"/>
	<path fill="#1A171B" d="M120.614,230.304l3.345-0.792c0.44,0.88,0.792,2.156,0.792,3.08v0.176c1.012-1.056,1.452-1.363,2.685-2.112
		c1.408-0.836,2.508-1.188,3.696-1.188c1.717,0,3.389,0.881,4.356,2.201c0.309,0.439,0.484,0.703,0.748,1.452
		c2.112-2.245,4.797-3.653,7.041-3.653c3.257,0,5.501,2.465,5.501,5.941v16.547h-3.521V235.76c0-2.111-0.968-3.212-2.816-3.212
		c-1.056,0-2.2,0.44-3.212,1.188c-0.66,0.484-1.408,1.1-2.201,1.848l-0.396,0.353v16.019h-3.477v-15.578
		c0-1.893-0.044-2.201-0.616-2.816c-0.528-0.617-1.232-0.881-2.244-0.881c-1.672,0-3.301,0.836-5.589,2.904v16.371h-3.301v-16.326
		C121.406,232.592,121.318,232.107,120.614,230.304z"/>
	<path fill="#1A171B" d="M159.553,220.578l3.433-0.66c0.396,1.452,0.572,2.86,0.572,5.061v5.105c0,0.836-0.044,1.848-0.132,2.992
		c0.836-0.793,1.231-1.101,2.2-1.717c1.848-1.232,3.389-1.76,5.104-1.76c2.641,0,4.973,1.452,5.633,3.477
		c0.264,0.88,0.353,1.584,0.353,3.168v15.711h-3.389v-15.139c0-1.629-0.265-2.596-0.836-3.256c-0.528-0.529-1.453-0.881-2.553-0.881
		c-2.112,0-4.488,1.364-6.381,3.697v15.578h-3.433v-27.021C160.125,223.043,159.993,222.118,159.553,220.578z"/>
	<path fill="#1A171B" d="M196.558,229.555c3.652,0,6.029,1.673,7.525,3.829c1.364,1.98,2.024,4.577,2.024,8.142
		c0,4.269-1.013,6.953-3.433,9.064c-1.717,1.496-3.521,2.113-5.985,2.113c-5.853,0-9.461-4.445-9.461-11.662
		C187.229,233.912,190.793,229.555,196.558,229.555z M196.514,232.371c-1.937,0-3.696,0.969-4.488,2.377
		c-0.704,1.364-1.057,3.125-1.057,5.721c0,3.08,0.528,5.809,1.364,7.174c0.792,1.319,2.553,2.199,4.444,2.199
		c2.289,0,4.005-1.188,4.753-3.3c0.484-1.364,0.66-2.597,0.66-4.753c0-3.08-0.308-5.148-1.012-6.602
		C200.254,233.252,198.317,232.371,196.514,232.371z"/>
	<path fill="#1A171B" d="M216.269,220.666l3.564-0.704c0.572,1.673,0.528,4.137,0.528,6.776v20.815c0,1.716,0.265,2.2,1.232,2.2
		c0.132,0,0.44-0.088,0.44-0.088l0.704,2.244c-0.881,0.396-1.276,0.484-2.2,0.484c-1.101,0-1.937-0.309-2.597-0.924
		c-0.792-0.704-1.057-1.541-1.057-3.125v-21.607C216.885,223.438,216.797,222.206,216.269,220.666z"/>
	<path fill="#1A171B" d="M241.57,229.996l-1.057,2.684h-4.62v14.082c0,2.42,0.659,3.257,2.816,3.257c0.968,0,1.584-0.132,2.2-0.44
		l0.483,2.2c-1.1,0.572-2.332,0.88-3.872,0.88c-1.145,0-2.024-0.22-2.86-0.615c-1.54-0.748-2.112-2.156-2.112-4.357V232.68h-2.86
		v-2.684h2.86v-0.265c0-1.101,0.088-2.333,0.308-4.577l0.044-0.572l3.564-0.791c0,0-0.439,3.3-0.439,6.205H241.57z"/>
	<path fill="#1A171B" d="M249.356,230.084h14.61v2.816l-11.397,16.414h12.102l-1.628,2.641h-14.61v-2.641l11.926-16.502h-11.002
		V230.084z"/>
	<path fill="#1A171B" d="M311.882,223.834l-1.937,2.333c-1.804-1.32-3.521-1.893-5.721-1.893c-3.477,0-5.984,1.805-7.437,5.192
		c-0.881,2.025-1.276,4.445-1.276,8.01c0,2.904,0.264,4.621,0.968,6.381c1.54,3.785,4.665,5.545,8.098,5.545
		c2.244,0,3.96-0.572,5.896-1.937l1.937,2.509c-2.421,1.584-5.413,2.464-8.405,2.464c-7.35,0-12.41-6.337-12.41-15.49
		c0-8.978,5.369-15.578,12.674-15.578C307.173,221.37,309.813,222.25,311.882,223.834z"/>
	<path fill="#1A171B" d="M335.333,247.51l1.32,2.201c-1.936,1.76-4.576,2.728-7.393,2.728c-6.073,0-9.726-4.4-9.726-11.661
		c0-3.697,0.748-6.117,2.641-8.273c1.76-2.068,3.916-3.08,6.557-3.08c2.376,0,4.489,0.836,5.941,2.42
		c1.892,1.936,2.42,4.004,2.508,9.241v0.484h-13.686v0.528c0,2.068,0.264,3.652,1.012,4.797c1.232,1.892,3.257,2.684,5.457,2.684
		C332.077,249.578,333.793,248.918,335.333,247.51z M323.496,238.973h10.033c-0.044-2.377-0.353-3.828-1.013-4.885
		c-0.748-1.188-2.288-1.936-3.96-1.936C325.432,232.152,323.672,234.439,323.496,238.973z"/>
	<path fill="#1A171B" d="M346.727,230.436l3.345-0.924c0.572,1.232,0.792,2.156,0.792,3.432c2.288-2.288,4.577-3.389,6.909-3.389
		c2.376,0,4.488,1.277,5.369,3.213c0.352,0.793,0.527,1.672,0.527,2.553v16.635h-3.477v-14.83c0-2.333-0.132-2.949-0.792-3.653
		c-0.483-0.571-1.408-0.924-2.42-0.924c-1.761,0-4.489,1.408-6.073,3.081v16.326h-3.345v-16.326
		C347.562,232.592,347.475,232.107,346.727,230.436z"/>
	<path fill="#1A171B" d="M384.833,229.996l-1.057,2.684h-4.621v14.082c0,2.42,0.66,3.257,2.816,3.257
		c0.969,0,1.585-0.132,2.201-0.44l0.483,2.2c-1.1,0.572-2.332,0.88-3.872,0.88c-1.145,0-2.024-0.22-2.86-0.615
		c-1.54-0.748-2.112-2.156-2.112-4.357V232.68h-2.86v-2.684h2.86v-0.265c0-1.101,0.088-2.333,0.308-4.577l0.044-0.572l3.564-0.791
		c0,0-0.439,3.3-0.439,6.205H384.833z"/>
	<path fill="#1A171B" d="M393.366,230.392l3.433-0.925c0.528,1.145,0.748,1.805,0.748,3.257v0.308
		c1.585-2.244,3.917-3.652,6.161-3.652c0.572,0,1.188,0.221,1.188,0.221l-1.408,3.74c-0.44-0.132-0.572-0.176-0.969-0.176
		c-1.32,0-2.64,0.572-3.652,1.584c-1.012,1.012-1.276,1.672-1.276,3.477v13.73h-3.433v-16.723
		C394.158,232.724,393.982,231.8,393.366,230.392z"/>
	<path fill="#1A171B" d="M426.368,247.51l1.32,2.201c-1.936,1.76-4.576,2.728-7.393,2.728c-6.073,0-9.726-4.4-9.726-11.661
		c0-3.697,0.748-6.117,2.641-8.273c1.76-2.068,3.916-3.08,6.557-3.08c2.376,0,4.489,0.836,5.941,2.42
		c1.892,1.936,2.42,4.004,2.508,9.241v0.484h-13.686v0.528c0,2.068,0.264,3.652,1.012,4.797c1.232,1.892,3.257,2.684,5.457,2.684
		C423.112,249.578,424.828,248.918,426.368,247.51z M414.531,238.973h10.033c-0.044-2.377-0.353-3.828-1.013-4.885
		c-0.748-1.188-2.288-1.936-3.96-1.936C416.467,232.152,414.707,234.439,414.531,238.973z"/>
</g>
</svg>
