<?xml version="1.0" encoding="UTF-8" standalone="no"?>
<!-- Created with Inkscape (http://www.inkscape.org/) -->

<svg
   version="1.1"
   id="svg2"
   xml:space="preserve"
   width="1095.0267"
   height="317.38666"
   viewBox="0 0 1095.0267 317.38666"
   sodipodi:docname="UFZ_Logo_CMYK_EN.eps"
   xmlns:inkscape="http://www.inkscape.org/namespaces/inkscape"
   xmlns:sodipodi="http://sodipodi.sourceforge.net/DTD/sodipodi-0.dtd"
   xmlns="http://www.w3.org/2000/svg"
   xmlns:svg="http://www.w3.org/2000/svg"><defs
     id="defs6"><clipPath
       clipPathUnits="userSpaceOnUse"
       id="clipPath48"><path
         d="m 1706.8,1801.98 c -209.23,0 -406.52,-91.84 -542.23,-252.09 v -99.3 l 3.8,5.58 c 121.44,178.83 322.72,285.59 538.43,285.59 358.72,0 650.55,-291.84 650.55,-650.56 0,-103.309 -23.53,-202.091 -69.94,-293.579 -43.44,-85.66 -106.7,-162.012 -183.01,-221.062 v -74.02 l 2.82,1.922 c 194.33,133.019 310.35,352.359 310.35,586.739 0,391.93 -318.85,710.78 -710.77,710.78 z"
         id="path46" /></clipPath><linearGradient
       x1="0"
       y1="0"
       x2="1"
       y2="0"
       gradientUnits="userSpaceOnUse"
       gradientTransform="matrix(-762.495,769.599,769.599,762.495,2280.25,923.16)"
       spreadMethod="pad"
       id="linearGradient54"><stop
         style="stop-opacity:1;stop-color:#62b92c"
         offset="0"
         id="stop50" /><stop
         style="stop-opacity:1;stop-color:#2bbae1"
         offset="1"
         id="stop52" /></linearGradient></defs><sodipodi:namedview
     id="namedview4"
     pagecolor="#ffffff"
     bordercolor="#666666"
     borderopacity="1.0"
     inkscape:pageshadow="2"
     inkscape:pageopacity="0.0"
     inkscape:pagecheckerboard="0" /><g
     id="g8"
     inkscape:groupmode="layer"
     inkscape:label="ink_ext_XXXXXX"
     transform="matrix(1.3333333,0,0,-1.3333333,0,317.38667)"><g
       id="g10"
       transform="scale(0.1)"><g
         id="g12"
         transform="scale(10)"><text
           transform="matrix(1,0,0,-1,258.568,76.3832)"
           style="font-variant:normal;font-weight:normal;font-size:35px;font-family:CorporateS;-inkscape-font-specification:CorporateS-Regular;writing-mode:lr-tb;fill:#125a9e;fill-opacity:1;fill-rule:nonzero;stroke:none"
           id="text16"><tspan
             x="0 21.035 38.044998 55.685001 66.675003 78.026588 95.036591 103.78659 112.84519 130.48581 141.9308 150.6808 168.25081 185.88954 200.97542 208.70978 220.04379 237.68379 255.32379 282.09879 299.1088 316.74878 327.61111 344.27112 352.00546 360.75546 379.91177 396.92175 412.25177 429.26175 445.92175 457.26355 473.33386"
             y="0"
             sodipodi:role="line"
             id="tspan14">Centre for Environmental Research</tspan></text></g><path
         d="m 2740.31,1255.86 v 103.25 h 48.97 v -255.12 h -48.97 v 102.9 h -87.43 v -102.9 h -48.93 v 255.12 h 48.93 v -103.25 h 87.43"
         style="fill:#125a9e;fill-opacity:1;fill-rule:nonzero;stroke:none"
         id="path18" /><path
         d="m 3004.95,1359.11 v -48.93 h -111.92 v -54.32 h 97.16 v -48.97 h -97.16 v -53.96 h 111.92 v -48.94 h -136.74 c -2.16,0 -4.33,0.73 -5.77,2.52 l -15.83,15.82 c -1.79,1.44 -2.52,3.61 -2.52,5.77 v 206.93 c 0,2.14 0.73,4.3 2.52,5.74 l 15.83,15.82 c 1.44,1.46 3.61,2.52 5.77,2.52 h 136.74"
         style="fill:#125a9e;fill-opacity:1;fill-rule:nonzero;stroke:none"
         id="path20" /><path
         d="m 3080.64,1103.99 c -2.17,0 -4.34,0.73 -5.78,2.52 l -15.82,15.82 c -1.81,1.44 -2.52,3.61 -2.52,5.77 v 231.01 h 48.94 v -206.18 h 106.5 v -48.94 h -131.32"
         style="fill:#125a9e;fill-opacity:1;fill-rule:nonzero;stroke:none"
         id="path22" /><path
         d="m 3474.73,1359.11 v -255.12 h -48.94 v 141.06 l -39.93,-83.48 c -1.44,-2.87 -4.31,-4.69 -7.21,-4.69 h -28.78 c -3.25,0 -6.12,1.82 -7.56,4.69 l -39.93,83.48 v -141.06 h -48.93 v 255.12 h 48.93 l 61.89,-129.53 61.52,129.53 h 48.94"
         style="fill:#125a9e;fill-opacity:1;fill-rule:nonzero;stroke:none"
         id="path24" /><path
         d="m 3662.71,1255.86 v 103.25 h 48.97 v -255.12 h -48.97 v 102.9 h -87.43 v -102.9 h -48.92 v 255.12 h 48.92 v -103.25 h 87.43"
         style="fill:#125a9e;fill-opacity:1;fill-rule:nonzero;stroke:none"
         id="path26" /><path
         d="m 3896.77,1176.69 v 109.37 c 0,2.17 -1.09,4.34 -2.52,5.77 l -15.47,15.83 c -1.82,1.44 -3.96,2.52 -6.12,2.52 h -43.9 c -2.17,0 -3.96,-1.08 -5.77,-2.52 l -15.47,-15.83 c -1.79,-1.43 -2.52,-3.6 -2.52,-5.77 v -109.37 c 0,-2.17 0.73,-3.96 2.52,-5.77 l 15.47,-15.47 c 1.81,-1.79 3.6,-2.52 5.77,-2.52 h 43.9 c 2.16,0 4.3,0.73 6.12,2.52 l 15.47,15.47 c 1.43,1.81 2.52,3.6 2.52,5.77 z m 11.51,170.2 25.56,-25.19 c 7.56,-7.56 11.86,-17.99 11.86,-28.78 v -122.71 c 0,-10.81 -4.3,-21.24 -11.86,-28.8 l -25.56,-25.55 c -7.56,-7.56 -17.99,-11.87 -28.8,-11.87 h -57.19 c -10.82,0 -21.6,3.96 -29.16,11.87 l -25.19,25.55 c -7.57,7.56 -11.88,17.99 -11.88,28.8 v 122.71 c 0,10.79 4.31,21.22 11.88,28.78 l 25.19,25.19 c 7.91,7.91 18.34,12.22 29.16,12.22 h 57.19 c 10.81,0 20.89,-4.66 28.8,-12.22"
         style="fill:#125a9e;fill-opacity:1;fill-rule:nonzero;stroke:none"
         id="path28" /><path
         d="m 4013.13,1103.99 c -2.17,0 -4.34,0.73 -5.79,2.52 l -15.82,15.82 c -1.81,1.44 -2.52,3.61 -2.52,5.77 v 231.01 h 48.94 v -206.18 h 106.5 v -48.94 h -131.31"
         style="fill:#125a9e;fill-opacity:1;fill-rule:nonzero;stroke:none"
         id="path30" /><path
         d="m 4140.93,1310.18 v 48.93 h 184.24 v -48.93 h -67.65 v -206.19 h -48.94 v 206.19 h -67.65"
         style="fill:#125a9e;fill-opacity:1;fill-rule:nonzero;stroke:none"
         id="path32" /><path
         d="m 4514.6,1356.59 15.82,-15.82 c 1.44,-1.44 2.52,-3.6 2.52,-5.74 v -12.6 l -107.24,-169.5 h 105.8 v -48.94 h -146.09 c -2.17,0 -4.34,0.73 -5.77,2.52 l -15.82,15.82 c -1.44,1.44 -2.52,3.61 -2.52,5.77 v 14.75 l 105.8,167.33 h -107.24 v 48.93 h 148.97 c 2.17,0 4.33,-1.06 5.77,-2.52"
         style="fill:#125a9e;fill-opacity:1;fill-rule:nonzero;stroke:none"
         id="path34" /><path
         d="m 1049.56,933.469 v 425.601 h 115.01 V 918.371 c 0,-25.191 -10.91,-48.699 -28.79,-66.902 l -58.65,-59.707 c -17.48,-17.782 -41.84,-27.864 -67.02,-27.864 H 896.785 c -25.183,0 -49.519,10.082 -67,27.864 l -58.652,59.707 c -17.899,18.203 -27.969,41.711 -27.969,66.902 v 440.699 h 114.16 V 933.469 c 0,-5.028 1.692,-9.219 5.047,-13.43 l 36.938,-36.098 c 3.347,-4.191 8.386,-5.882 13.425,-5.882 h 81.438 c 5.019,0 10.058,1.691 13.418,5.882 l 36.93,36.098 c 3.37,4.211 5.04,8.402 5.04,13.43"
         style="fill:#125a9e;fill-opacity:1;fill-rule:nonzero;stroke:none"
         id="path36" /><path
         d="m 1650.54,1359.07 v -114.16 h -271.15 v -126.76 h 236.73 V 1003.99 H 1379.39 V 763.898 h -114.16 v 538.942 c 0,5.03 1.67,10.07 5.88,13.42 l 36.94,36.93 c 3.35,3.38 8.39,5.88 13.42,5.88 h 329.07"
         style="fill:#125a9e;fill-opacity:1;fill-rule:nonzero;stroke:none"
         id="path38" /><path
         d="m 2048.45,1358.8 c 5.06,0 9.9,-2.01 13.46,-5.59 l 36.92,-36.91 c 3.56,-3.57 5.57,-8.42 5.57,-13.46 v -29.13 L 1854.12,878.129 H 2104.4 V 763.898 h -344.15 c -5.03,0 -9.89,2.024 -13.44,5.582 l -36.93,36.911 c -3.56,3.589 -5.56,8.41 -5.56,13.468 v 35.11 l 246.5,389.611 h -227.59 v 114.22 h 325.22"
         style="fill:#125a9e;fill-opacity:1;fill-rule:nonzero;stroke:none"
         id="path40" /><g
         id="g42"><g
           id="g44"
           clip-path="url(#clipPath48)"><path
             d="m 1706.8,1801.98 c -209.23,0 -406.52,-91.84 -542.23,-252.09 v -99.3 l 3.8,5.58 c 121.44,178.83 322.72,285.59 538.43,285.59 358.72,0 650.55,-291.84 650.55,-650.56 0,-103.309 -23.53,-202.091 -69.94,-293.579 -43.44,-85.66 -106.7,-162.012 -183.01,-221.062 v -74.02 l 2.82,1.922 c 194.33,133.019 310.35,352.359 310.35,586.739 0,391.93 -318.85,710.78 -710.77,710.78"
             style="fill:url(#linearGradient54);fill-opacity:1;fill-rule:nonzero;stroke:none"
             id="path56" /></g></g></g></g></svg>
