<?xml version="1.0" encoding="UTF-8" standalone="no"?>
<!-- Created with Inkscape (http://www.inkscape.org/) -->

<svg
   version="1.1"
   id="svg2"
   xml:space="preserve"
   width="274.58667"
   height="148.64"
   viewBox="0 0 274.58667 148.64"
   sodipodi:docname="RDM_fullcolor.eps"
   xmlns:inkscape="http://www.inkscape.org/namespaces/inkscape"
   xmlns:sodipodi="http://sodipodi.sourceforge.net/DTD/sodipodi-0.dtd"
   xmlns="http://www.w3.org/2000/svg"
   xmlns:svg="http://www.w3.org/2000/svg"><defs
     id="defs6" /><sodipodi:namedview
     id="namedview4"
     pagecolor="#ffffff"
     bordercolor="#666666"
     borderopacity="1.0"
     inkscape:pageshadow="2"
     inkscape:pageopacity="0.0"
     inkscape:pagecheckerboard="0" /><g
     id="g8"
     inkscape:groupmode="layer"
     inkscape:label="ink_ext_XXXXXX"
     transform="matrix(1.3333333,0,0,-1.3333333,0,148.64)"><g
       id="g10"
       transform="scale(0.1)"><path
         d="m 613.813,291.938 c 8.406,-36.102 -14.055,-72.196 -50.168,-80.602 -36.102,-8.41 -72.196,14.051 -80.606,50.152 -8.406,36.114 14.055,72.207 50.156,80.617 36.114,8.411 72.2,-14.05 80.618,-50.167"
         style="fill:#b4d1e0;fill-opacity:1;fill-rule:nonzero;stroke:none"
         id="path12" /><path
         d="M 542.16,272.516 715.277,400.074"
         style="fill:none;stroke:#b4d1e0;stroke-width:23.78;stroke-linecap:round;stroke-linejoin:miter;stroke-miterlimit:10;stroke-dasharray:none;stroke-opacity:1"
         id="path14" /><path
         d="m 453.254,474.438 c -7.703,-36.266 -43.348,-59.43 -79.617,-51.727 -36.262,7.707 -59.426,43.34 -51.719,79.609 7.695,36.278 43.348,59.434 79.617,51.731 36.262,-7.707 59.426,-43.34 51.719,-79.613"
         style="fill:#78a8cc;fill-opacity:1;fill-rule:nonzero;stroke:none"
         id="path16" /><path
         d="M 392.816,487.23 H 687.23"
         style="fill:none;stroke:#78a8cc;stroke-width:23.78;stroke-linecap:round;stroke-linejoin:miter;stroke-miterlimit:10;stroke-dasharray:none;stroke-opacity:1"
         id="path18" /><path
         d="m 544.934,712.055 c -34.102,-14.559 -73.543,1.281 -88.106,35.383 -14.558,34.101 1.281,73.554 35.383,88.105 34.102,14.559 73.555,-1.277 88.105,-35.383 14.559,-34.101 -1.289,-73.543 -35.382,-88.105"
         style="fill:#4981b8;fill-opacity:1;fill-rule:nonzero;stroke:none"
         id="path20" /><path
         d="M 513.344,779.234 720.598,579.305"
         style="fill:none;stroke:#4981b8;stroke-width:23.78;stroke-linecap:round;stroke-linejoin:miter;stroke-miterlimit:10;stroke-dasharray:none;stroke-opacity:1"
         id="path22" /><path
         d="M 900.461,851.742 820.129,610.434"
         style="fill:none;stroke:#295da8;stroke-width:23.78;stroke-linecap:round;stroke-linejoin:miter;stroke-miterlimit:10;stroke-dasharray:none;stroke-opacity:1"
         id="path24" /><path
         d="m 852.473,795.113 c -27.403,24.973 -29.383,61.082 -4.403,88.485 24.969,27.414 67.43,29.386 94.832,4.418 27.403,-24.973 29.375,-61.094 4.407,-88.508 -24.973,-27.395 -67.434,-29.367 -94.836,-4.395"
         style="fill:#295da8;fill-opacity:1;fill-rule:nonzero;stroke:none"
         id="path26" /><path
         d="m 954.602,390.887 c -10.899,-8.926 -29.727,-13.403 -56.504,-13.403 h -54.09 v 109.797 h 54.09 c 26.777,0 45.605,-3.933 56.504,-11.777 10.89,-7.871 16.328,-21.082 16.328,-39.629 0,-21.082 -5.438,-36.074 -16.328,-44.988 z m 7.226,-59.457 c 24.981,6.781 43.642,18.82 55.972,36.156 12.32,17.305 18.48,40.074 18.48,68.289 0,39.258 -10.64,67.285 -31.86,84.07 -21.264,16.778 -56.713,25.188 -106.322,25.188 H 779.738 V 209.32 h 64.27 v 114.61 h 49.793 l 75.527,-114.61 h 77.132 l -84.632,122.11"
         style="fill:#231f20;fill-opacity:1;fill-rule:nonzero;stroke:none"
         id="path28" /><path
         d="M 1738.92,545.133 V 209.32 h -60.52 v 232.973 l -76.57,-167.082 h -53.03 l -76.05,167.617 V 209.32 h -60.51 v 335.813 h 79.27 l 85.13,-191.192 85.7,191.192 h 76.58"
         style="fill:#231f20;fill-opacity:1;fill-rule:nonzero;stroke:none"
         id="path30" /><path
         d="m 1194.23,210.223 h -106.9 v 333.465 h 106.9 c 34.03,0 61.09,-2.833 81.11,-8.528 20.03,-5.672 36.08,-14.707 48.12,-27.117 12.06,-12.41 20.84,-29.16 26.34,-50.266 5.49,-21.082 8.24,-47.949 8.24,-80.574 0,-57.781 -12.95,-100.058 -38.83,-126.824 -25.88,-26.781 -67.54,-40.156 -124.98,-40.156 m 80.3,251.558 c -6.71,8.852 -16.12,15.141 -28.18,18.867 -12.06,3.723 -29.42,5.586 -52.12,5.586 h -43.07 V 270.328 h 43.07 c 38.3,0 64.18,7.793 77.65,23.391 13.46,15.594 20.21,43.433 20.21,83.484 0,21.289 -1.41,38.645 -4.25,52.141 -2.85,13.465 -7.27,24.265 -13.31,32.437"
         style="fill:#040606;fill-opacity:1;fill-rule:nonzero;stroke:none"
         id="path32" /></g></g></svg>
