<svg id="Logo" xmlns="http://www.w3.org/2000/svg" viewBox="5.01 8.61 67.94 15.26"><path d="M17.68,12.19c-.28,0-.54.08-.7.41l-2.15,4.37-2.12-4.32c-.15-.32-.36-.45-.74-.45-.4,0-.72.3-.72.7v6.82c0,.38.31.69.69.69s.69-.31.69-.69v-4.19l1.5,3.12c.14.3.41.44.68.44s.54-.15.68-.45l1.5-3.11v4.18c0,.39.31.7.7.7s.69-.31.69-.7v-6.81c0-.38-.31-.7-.71-.7ZM46.52,11.89c-.11.03-.23.03-.34,0-.18-.03-.29-.14-.33-.32-.01-.06-.01-.11-.01-.17,0-.09-.05-.17-.13-.22-.07-.05-.15-.06-.23-.05-.15.01-.27.13-.27.28,0,.06,0,.13,0,.19.03.22.11.42.27.59.23.24.52.34.89.34.05,0,.13,0,.22-.02.26-.04.49-.16.66-.37.28-.33.29-.9.02-1.26-.17-.22-.38-.39-.62-.53-.21-.12-.42-.25-.62-.37-.11-.07-.16-.16-.15-.29,0-.14.06-.23.19-.3.12-.06.25-.06.38-.05.08.01.15.04.22.08.07.04.12.1.12.2,0,.1.05.19.14.23.05.02.1.04.15.04.16.01.31-.09.33-.23,0-.06,0-.12,0-.18-.03-.23-.16-.41-.35-.55-.3-.21-.63-.26-.98-.19-.3.06-.54.21-.71.46-.12.17-.13.37-.13.57,0,.2.06.37.19.51.11.14.25.25.4.34.19.12.38.22.58.33.12.07.22.15.31.25.21.24.1.59-.2.67ZM22.67,15.69c-.47-.28-.94-.56-1.41-.85-.24-.15-.35-.36-.34-.66.01-.31.15-.53.42-.67.28-.14.57-.14.87-.1.18.02.35.09.51.17.17.09.26.24.26.44,0,.23.11.42.32.52.11.05.23.08.35.09.36.03.7-.2.75-.52.02-.14.02-.28,0-.42-.07-.53-.36-.94-.79-1.24-.67-.47-1.42-.58-2.21-.43-.67.13-1.22.47-1.62,1.04-.27.39-.3.84-.29,1.29,0,.44.15.83.43,1.17.26.31.56.57.9.77.43.26.87.5,1.31.76.27.16.51.34.71.58.47.54.24,1.33-.46,1.52-.25.07-.51.07-.77.02-.4-.08-.66-.32-.75-.72-.03-.13-.02-.26-.03-.38-.02-.21-.11-.38-.29-.5-.16-.1-.34-.14-.52-.12-.34.03-.6.3-.62.65,0,.15,0,.3.02.44.06.51.25.96.61,1.33.52.55,1.18.76,2.01.77.1-.01.3-.02.49-.05.6-.1,1.1-.37,1.49-.84.62-.75.66-2.04.05-2.85-.38-.51-.87-.88-1.41-1.2ZM8.28,15.69c-.47-.28-.94-.56-1.41-.85-.24-.15-.35-.36-.34-.66.01-.31.15-.53.42-.67.28-.14.57-.14.87-.1.18.02.35.09.51.17.17.09.26.24.26.44,0,.23.11.42.32.52.11.05.23.08.35.09.36.03.7-.2.75-.52.02-.14.02-.28,0-.42-.07-.53-.36-.94-.79-1.24-.67-.47-1.42-.58-2.21-.43-.67.13-1.22.47-1.62,1.04-.27.39-.3.84-.29,1.29,0,.44.15.83.43,1.17.26.31.56.57.9.77.43.26.87.5,1.31.76.27.16.51.34.71.58.47.54.24,1.33-.46,1.52-.25.07-.51.07-.77.02-.4-.08-.66-.32-.75-.72-.03-.13-.02-.26-.03-.38-.02-.21-.11-.38-.29-.5-.16-.1-.34-.14-.52-.12-.34.03-.6.3-.62.65,0,.15,0,.3.02.44.06.51.25.96.61,1.33.52.55,1.18.76,2.01.77.1-.01.3-.02.49-.05.6-.1,1.1-.37,1.49-.84.62-.75.66-2.04.05-2.85-.38-.51-.87-.88-1.41-1.2ZM50.65,10.62v1.49c0,.18.15.33.33.33s.32-.15.32-.33v-1.44c.09-.12.23-.2.41-.2.29,0,.34.18.34.38v1.26c0,.18.15.33.32.33s.33-.15.33-.33v-1.34c0-.55-.2-.92-.81-.92-.32,0-.56.1-.73.26-.03-.05-.07-.09-.11-.13-.1-.07-.21-.11-.31-.11-.19,0-.33.08-.33.27,0,.09.04.15.09.19.07.06.14.11.14.28ZM49.03,12.43c.19,0,.44-.03.63-.1.16-.07.28-.16.28-.31s-.08-.25-.23-.25c-.09,0-.16.04-.26.08-.08.02-.19.05-.37.05-.28,0-.41-.18-.41-.47v-.1h1.16c.12,0,.22-.1.22-.23v-.2c0-.57-.28-1.06-1.01-1.06s-1.02.5-1.02,1.07v.45c0,.57.27,1.06,1.02,1.06ZM48.66,10.79c0-.27.13-.43.38-.43s.37.16.37.43v.06h-.75v-.06ZM56.86,16.25v.19c0,.7.21,1.1.88,1.1.17,0,.37-.06.52-.15v.12c0,.38-.19.54-.52.54-.15,0-.24-.02-.32-.05-.08-.02-.13-.05-.19-.05-.15,0-.27.12-.27.26,0,.13.09.21.21.27.19.08.46.1.61.1.71,0,1.13-.39,1.13-1.11v-2c0-.18-.13-.33-.33-.33-.16,0-.26.09-.31.2-.14-.12-.34-.2-.54-.2-.64,0-.88.42-.88,1.11ZM57.52,16.16c0-.3.11-.46.37-.46.11,0,.26.06.37.16v1c-.11.09-.27.13-.37.13-.28,0-.37-.15-.37-.44v-.39ZM58.24,10.62v1.49c0,.18.15.33.33.33s.32-.15.32-.33v-1.35c.06-.2.22-.28.42-.28.15,0,.19.02.28.02.2,0,.31-.16.31-.32,0-.22-.22-.32-.44-.32-.16,0-.45.03-.67.31-.1-.16-.27-.28-.46-.28-.2,0-.33.09-.33.27,0,.09.04.15.09.19.07.06.14.11.14.28ZM49.85,16.19c-.62,0-.96.28-.96.73v.03c0,.46.3.76.87.76.21,0,.48-.04.67-.2.03.06.09.1.15.14.08.05.17.07.26.07.18,0,.32-.08.32-.27,0-.09-.04-.15-.09-.19-.07-.06-.13-.11-.13-.27v-.81c0-.73-.27-1.04-.97-1.04-.17,0-.42.02-.62.11-.16.06-.28.16-.28.3s.1.25.25.25c.09,0,.15-.04.25-.07.09-.03.19-.06.34-.06.3,0,.37.16.37.44v.09h-.43ZM50.28,16.88c0,.26-.16.38-.38.38-.25,0-.36-.11-.36-.29v-.03c0-.16.1-.28.39-.28h.35v.21ZM54.07,11.9c-.25,0-.37-.04-.51-.09-.14-.05-.31.01-.36.17-.04.14.02.3.16.35.17.06.35.1.7.1.52,0,1.01-.22,1.01-.8,0-.53-.34-.66-.66-.73-.32-.07-.6-.08-.6-.31,0-.11.1-.21.33-.21.16,0,.29.03.48.1.15.04.3-.04.34-.18.04-.15-.02-.29-.17-.34-.18-.06-.37-.11-.68-.11-.49,0-.91.27-.91.79,0,.48.28.63.58.7.33.09.67.08.67.32,0,.15-.14.24-.39.24ZM46.65,21.22c-.21-.12-.42-.25-.62-.37-.11-.07-.16-.16-.15-.29,0-.14.06-.23.19-.3.12-.06.25-.06.38-.05.08.01.15.04.22.08.07.04.12.1.12.2,0,.1.05.19.14.23.05.02.1.04.15.04.16.01.31-.09.33-.23,0-.06,0-.12,0-.18-.03-.23-.16-.41-.35-.55-.3-.21-.63-.26-.98-.19-.3.06-.54.21-.71.46-.12.17-.13.37-.13.57,0,.2.06.37.19.51.11.14.25.25.4.34.19.12.38.22.58.33.12.07.22.15.31.25.21.24.1.59-.2.67-.11.03-.23.03-.34,0-.18-.03-.29-.14-.33-.32-.01-.06-.01-.11-.01-.17,0-.09-.05-.17-.13-.22-.07-.05-.15-.06-.23-.05-.15.01-.27.13-.27.28,0,.06,0,.13,0,.19.03.22.11.42.27.59.23.24.52.34.89.34.05,0,.13,0,.22-.02.26-.04.49-.16.66-.37.28-.33.29-.9.02-1.26-.17-.22-.38-.39-.62-.53ZM60.51,15.14c-.71,0-1.02.5-1.02,1.07v.45c0,.57.27,1.06,1.02,1.06.19,0,.44-.03.63-.1.16-.07.28-.16.28-.31s-.08-.25-.23-.25c-.09,0-.16.04-.26.08-.08.02-.19.05-.37.05-.28,0-.41-.18-.41-.47v-.1h1.16c.12,0,.22-.1.22-.23v-.2c0-.57-.28-1.06-1.01-1.06ZM60.89,16.15h-.75v-.06c0-.27.13-.43.38-.43s.37.16.37.43v.06ZM48.03,17.74c.17,0,.31-.14.31-.31v-3c0-.17-.14-.31-.32-.31-.12,0-.24.03-.31.18l-.95,1.93-.94-1.91c-.07-.14-.16-.2-.33-.2-.17,0-.32.13-.32.31v3.01c0,.17.14.31.31.31s.31-.14.31-.31v-1.85l.66,1.38c.06.13.18.19.3.19s.24-.07.3-.2l.66-1.37v1.84c0,.17.14.31.31.31ZM57.6,11.4v-.52c0-.56-.32-1.03-1.04-1.03s-1.04.47-1.04,1.03v.52c0,.56.32,1.03,1.04,1.03s1.04-.47,1.04-1.03ZM56.95,11.4c0,.29-.12.45-.39.45s-.38-.16-.38-.45v-.51c0-.29.12-.45.38-.45s.39.16.39.45v.51ZM59.52,20.43c-.32,0-.56.1-.74.27-.12-.17-.33-.27-.65-.27s-.54.1-.72.25c-.03-.04-.07-.08-.11-.12-.1-.07-.21-.11-.31-.11-.19,0-.33.08-.33.27,0,.09.04.15.09.19.07.06.14.11.14.28v1.49c0,.18.15.33.33.33s.32-.15.32-.33v-1.45c.09-.12.22-.19.39-.19.28,0,.34.18.34.38v1.26c0,.18.15.33.33.33s.33-.15.33-.33v-1.34s0-.07,0-.1c.09-.12.22-.2.4-.2.28,0,.34.18.34.38v1.26c0,.18.15.33.32.33.18,0,.33-.15.33-.33v-1.34c0-.55-.2-.91-.82-.91ZM72.65,17.12h-.09c-.31,0-.38-.16-.38-.56v-.84s.37,0,.37,0c.15,0,.27-.12.27-.27s-.12-.27-.27-.27h-.37v-.33c0-.18-.15-.33-.32-.33s-.33.15-.33.33v.33h-.08c-.15,0-.27.12-.27.27s.12.27.27.27h.08v.86c0,.67.25,1.13.95,1.13h.18c.16,0,.29-.13.29-.29s-.13-.29-.29-.29ZM69.99,15.14c-.32,0-.56.1-.73.26-.03-.05-.07-.09-.11-.13-.1-.07-.21-.11-.31-.11-.19,0-.33.08-.33.27,0,.09.04.15.09.19.07.06.14.11.14.28v1.49c0,.18.15.33.33.33s.32-.15.32-.33v-1.44c.09-.12.23-.2.41-.2.29,0,.34.18.34.38v1.26c0,.18.15.33.32.33s.33-.15.33-.33v-1.34c0-.55-.2-.92-.81-.92ZM67.14,15.14c-.71,0-1.02.5-1.02,1.07v.45c0,.57.27,1.06,1.02,1.06.19,0,.44-.03.63-.1.16-.07.28-.16.28-.31s-.08-.25-.23-.25c-.09,0-.16.04-.26.08-.08.02-.19.05-.37.05-.28,0-.41-.18-.41-.47v-.1h1.16c.12,0,.22-.1.22-.23v-.2c0-.57-.28-1.06-1.01-1.06ZM67.52,16.15h-.75v-.06c0-.27.13-.43.38-.43s.37.16.37.43v.06ZM64.73,15.14c-.32,0-.56.1-.74.27-.12-.17-.32-.27-.65-.27s-.54.1-.72.25c-.03-.04-.07-.08-.11-.12-.1-.07-.21-.11-.31-.11-.19,0-.33.08-.33.27,0,.09.04.15.09.19.07.06.14.11.14.28v1.49c0,.18.15.33.33.33s.32-.15.32-.33v-1.45c.09-.12.22-.19.39-.19.28,0,.34.18.34.38v1.26c0,.18.15.33.32.33s.33-.15.33-.33v-1.34s0-.07,0-.1c.09-.12.22-.2.4-.2.28,0,.33.18.33.38v1.26c0,.18.15.33.33.33.18,0,.33-.15.33-.33v-1.34c0-.55-.2-.91-.82-.91ZM51.45,21.48c-.32-.07-.6-.08-.6-.31,0-.11.1-.21.33-.21.16,0,.29.03.48.1.15.04.3-.04.34-.18.04-.15-.02-.29-.17-.34-.18-.06-.37-.11-.68-.11-.49,0-.91.27-.91.79,0,.48.28.63.58.7.33.09.67.08.67.32,0,.15-.14.24-.39.24s-.37-.04-.51-.09c-.14-.05-.31.01-.36.17-.04.14.02.3.16.35.17.06.35.1.7.1.52,0,1.01-.22,1.01-.8,0-.53-.34-.66-.66-.73ZM49.65,20.43c-.12,0-.25.06-.3.22l-.45,1.42c-.19-.54-.36-1.06-.47-1.42-.04-.15-.16-.22-.28-.22-.19,0-.38.16-.31.4.15.49.47,1.35.75,2.05-.18.29-.37.34-.57.36-.2.02-.29.16-.29.31,0,.17.13.34.36.32.62-.05.95-.45,1.24-1.25l.62-1.76c.09-.25-.1-.44-.3-.44ZM53.05,16.14v1.26c0,.18.15.33.33.33s.33-.15.33-.33v-1.34c0-.55-.2-.92-.82-.92-.32,0-.56.1-.73.26-.03-.05-.07-.09-.11-.13-.1-.07-.21-.11-.31-.11-.19,0-.33.08-.33.27,0,.09.04.15.09.19.07.06.14.11.14.28v1.49c0,.18.15.33.33.33s.32-.15.32-.33v-1.44c.09-.12.23-.2.41-.2.29,0,.34.18.34.38ZM56.24,16.99v-.81c0-.73-.27-1.04-.97-1.04-.17,0-.42.02-.62.11-.16.06-.28.16-.28.3s.1.25.25.25c.09,0,.15-.04.25-.07.09-.03.19-.06.34-.06.3,0,.37.16.37.44v.09h-.43c-.62,0-.96.28-.96.73v.03c0,.46.3.76.87.76.21,0,.48-.04.67-.2.03.06.09.1.15.14.08.05.17.07.26.07.18,0,.32-.08.32-.27,0-.09-.04-.15-.09-.19-.07-.06-.13-.11-.13-.27ZM55.59,16.88c0,.26-.16.38-.38.38-.25,0-.36-.11-.36-.29v-.03c0-.16.1-.28.39-.28h.35v.21ZM55.29,20.43c-.71,0-1.02.5-1.02,1.07v.45c0,.57.27,1.06,1.02,1.06.19,0,.44-.03.63-.1.16-.07.28-.16.28-.31s-.08-.25-.23-.25c-.09,0-.16.04-.26.08-.08.02-.19.05-.37.05-.28,0-.41-.18-.41-.47v-.1h1.16c.12,0,.22-.1.22-.23v-.2c0-.57-.28-1.06-1.01-1.06ZM55.68,21.44h-.75v-.06c0-.27.13-.43.38-.43s.37.16.37.43v.06ZM53.8,22.41h-.09c-.31,0-.38-.16-.38-.56v-.84s.37,0,.37,0c.15,0,.27-.12.27-.27s-.12-.27-.27-.27h-.37v-.33c0-.18-.15-.33-.32-.33s-.33.15-.33.33v.33h-.08c-.15,0-.27.12-.27.27s.12.27.27.27h.08v.86c0,.67.25,1.13.95,1.13h.18c.16,0,.29-.13.29-.29s-.13-.29-.29-.29Z" fill="#fff" stroke-width="0"></path><path d="M37.85,11.13l.92-1.5c-3.24-1.99-7.48-.97-9.47,2.28-1.99,3.24-.97,7.48,2.28,9.47l-.9,1.47h0c3.23,1.98,7.45.96,9.43-2.27,1.98-3.23.97-7.47-2.26-9.44Z" fill="#fff" opacity=".1" stroke-width="0"></path><path d="M37.03,12.53v-.04s.82-1.36.82-1.36c-2.41-1.48-5.57-.72-7.05,1.69-1.48,2.41-.72,5.57,1.69,7.05l.55-.9h0s-1.47,2.39-1.47,2.39c2.45,1.5,5.64.73,7.14-1.72,1.49-2.44.73-5.62-1.7-7.12Z" fill="#fff" opacity=".3" stroke-width="0"></path><path d="M36.11,13.97l.89-1.46c-1.65-1.01-3.81-.49-4.83,1.16-1.01,1.65-.49,3.81,1.16,4.83l-.84,1.38c1.63,1,3.76.49,4.76-1.14,1-1.63.49-3.76-1.14-4.76Z" fill="#fff" opacity=".5" stroke-width="0"></path><path d="M35.28,15.33l-.02.04h0s.86-1.4.86-1.4c-.85-.52-1.95-.25-2.47.59-.52.85-.25,1.95.59,2.47h0s-.89,1.46-.89,1.46c.86.54,1.99.26,2.52-.61.53-.88.28-2.01-.59-2.55Z" fill="#fff" stroke-width="0"></path><path d="M39.55,15.68c-.32-1.34-1.12-2.47-2.26-3.23l.74-1.21s0,0,0,0h0s0,0,0,0c.03-.05.04-.1.02-.16-.01-.05-.05-.1-.09-.13-2.51-1.54-5.8-.75-7.34,1.76-.74,1.22-.97,2.65-.64,4.03.32,1.32,1.11,2.44,2.23,3.19l-.81,1.32s-.04.1-.03.16c.01.05.05.1.09.13.88.54,1.85.79,2.81.79,1.82,0,3.6-.92,4.62-2.58.75-1.23.98-2.68.65-4.08ZM38.55,19.55c-1.4,2.28-4.35,3.04-6.67,1.75l1.55-2.52c.42.21.89.26,1.35.15.53-.13.98-.46,1.27-.93.59-.97.29-2.24-.66-2.83l-.22.36c.75.47.99,1.48.52,2.26-.23.38-.59.64-1.01.74-.42.1-.85.03-1.22-.2-.05-.03-.1-.04-.16-.03-.05.01-.1.05-.13.09l-.73,1.2c-1.03-.69-1.75-1.72-2.04-2.93-.31-1.28-.1-2.6.59-3.72,1.38-2.25,4.29-3,6.58-1.73l-1.52,2.49c-.91-.44-2.03-.12-2.57.76-.28.46-.37,1-.24,1.52.13.52.45.96.9,1.24l.22-.36c-.36-.22-.62-.57-.71-.98s-.03-.84.19-1.2c.46-.75,1.44-.98,2.18-.52.1.06.23.03.29-.07h0s0,0,0,0l.78-1.27c1.04.7,1.78,1.74,2.07,2.97.31,1.29.1,2.63-.6,3.77Z" fill="#fff" stroke-width="0"></path></svg>