<?xml version="1.0" encoding="UTF-8"?><svg id="Logo" xmlns="http://www.w3.org/2000/svg" viewBox="0 0 46.77 32.6"><path d="M41.01,17.01c-.38-.51-.87-.88-1.41-1.2-.47-.28-.94-.56-1.41-.85-.24-.15-.35-.36-.34-.66.01-.31.15-.53.42-.67.28-.14.57-.14.87-.1.18.02.35.09.51.17.17.09.26.24.26.44,0,.23.11.42.32.52.11.05.23.08.35.09.36.03.7-.2.75-.52.02-.14.02-.28,0-.42-.07-.53-.36-.94-.79-1.24-.67-.47-1.42-.58-2.21-.43-.67.13-1.22.47-1.62,1.04-.27.39-.3.84-.29,1.29,0,.44.15.83.43,1.17.26.31.56.57.9.77.43.26.87.5,1.31.76.27.16.51.34.71.58.47.54.24,1.33-.46,1.52-.25.07-.51.07-.77.02-.4-.08-.66-.32-.75-.72-.03-.13-.02-.26-.03-.38-.02-.21-.11-.38-.29-.5-.16-.1-.34-.14-.52-.12-.34.03-.6.3-.62.65,0,.15,0,.3.02.44.06.51.25.96.61,1.33.52.55,1.18.76,2.01.77.1-.01.3-.02.49-.05.6-.1,1.1-.37,1.49-.84.62-.75.66-2.04.05-2.85ZM8.87,9.31l-3.63,5.87c0,.07,0,.14,0,.2l3.81-6.17c-.06.03-.12.06-.18.09ZM16.07,19.75c.32-.52.54-1.07.67-1.65l1.48-2.39c0-.05-.02-.1-.03-.15l-1.38,2.24c.09-.51.1-1.04.03-1.56l1.05-1.7s-.03-.08-.05-.12l-1.02,1.66c-.02-.15-.05-.31-.09-.46-.05-.21-.11-.41-.19-.6l.89-1.45s-.04-.07-.06-.11l-.88,1.43c-.12-.29-.25-.57-.42-.83l.81-1.31s-.05-.06-.07-.09l-.8,1.3c-.15-.24-.32-.47-.51-.68l.76-1.23s-.05-.05-.08-.08l-.76,1.23c-.18-.2-.38-.38-.59-.55l.74-1.2s-.06-.04-.09-.06l-.74,1.2c-.11-.08-.21-.16-.33-.24l.76-1.23s0,0,0,0h0s0,0,0,0c.03-.05.04-.1.02-.16-.01-.05-.05-.1-.1-.13-.17-.11-.35-.2-.53-.28l.83-1.34s-.06-.04-.09-.05l-.83,1.35c-.25-.11-.5-.2-.76-.27l.85-1.38s-.07-.02-.11-.03l-.85,1.38c-.28-.07-.56-.11-.85-.14l.9-1.46s-.07-.02-.11-.02l-.91,1.47c-.32-.02-.63-.01-.94.02l.99-1.6s-.08,0-.12,0l-1,1.62c-.37.05-.74.13-1.09.25l1.14-1.85s-.09,0-.13.01l-1.17,1.9c-.51.2-1,.47-1.44.82l1.56-2.52c-.05.01-.1.03-.15.04l-1.66,2.69c-.38.34-.71.73-.99,1.18-.27.44-.47.92-.61,1.4l-1.66,2.69c0,.05.02.1.03.15l1.56-2.52c-.11.54-.14,1.09-.08,1.64l-1.18,1.9s.03.08.05.12l1.14-1.85c.02.18.06.36.1.54.04.18.1.36.16.54l-1,1.62s.04.07.06.11l.99-1.6c.11.29.25.58.41.84l-.91,1.47s.05.06.07.09l.9-1.46c.15.24.32.47.51.68l-.86,1.39s.05.05.08.08l.86-1.39c.18.2.38.39.59.56l-.84,1.36s.06.04.09.06l.84-1.35c.11.08.22.17.33.24l-.83,1.34s-.04.11-.03.16c.01.05.05.1.1.13.17.1.35.2.53.28l-.85,1.38s.06.04.09.05l.86-1.38c.25.11.5.2.76.28l-.87,1.41s.07.02.11.03l.88-1.42c.28.07.56.12.84.15l-.92,1.48s.07.02.11.02l.92-1.5c.14.01.28.02.42.02.17,0,.35-.01.52-.03l-1,1.62s.08,0,.12,0l1.01-1.64c.37-.04.73-.12,1.08-.24l-1.14,1.85s.09,0,.13-.01l1.17-1.89c.49-.18.96-.42,1.38-.73l-1.5,2.43c.05-.01.1-.03.15-.04l1.59-2.57c.46-.38.86-.83,1.19-1.36ZM15.64,14.14l-.97,1.57s0,0,0,0c-.05-.14-.12-.28-.19-.42l-1.01,1.63c.01-.27-.03-.54-.12-.79l.82-1.32c.05.06.09.12.13.18l.89-1.45c.16.18.31.38.44.58ZM14.52,12.93c.18.14.36.3.52.47l-.88,1.42s0,0,0,0c-.08-.11-.17-.21-.26-.3l-.75,1.21c-.1-.15-.21-.29-.35-.42l.71-1.14s-.09-.07-.14-.11c.02-.03.03-.06.04-.08h0s0,0,0,0l.79-1.29c.05.03.1.07.15.11l-.84,1.36c.06.04.11.09.17.14l.85-1.37ZM14.55,11c.05.03.1.05.15.07l-.75,1.22s-.1-.06-.15-.08l.75-1.22ZM13.71,10.66c.22.07.44.15.65.25l-.76,1.23c.07.03.13.05.2.08l-.81,1.31c-.17-.06-.35-.1-.53-.12l.85-1.38c-.13-.04-.26-.07-.39-.1,0,0,0,0,0,0l.79-1.27ZM12.77,10.47c.24.02.49.07.73.13l-.8,1.29c.08,0,.15.02.23.04l-.92,1.49c-.27.04-.53.13-.77.26l1.12-1.81c-.15,0-.31,0-.46.02,0,0,0,0,0,0l.87-1.41ZM8,12.83c.53-.85,1.27-1.49,2.12-1.9l-2.85,4.62c-.02-.95.22-1.89.73-2.72ZM7.4,16.6c-.05-.23-.09-.45-.11-.68l3.17-5.12c.31-.12.64-.21.97-.27l-1.23,1.99c.13-.09.26-.16.39-.24l-1.91,3.1c0-.15.01-.3.03-.46l-1.22,1.98c-.03-.1-.06-.2-.09-.3ZM7.58,17.16l1.1-1.78h0c0,.22.01.43.05.65l2.47-3.99c-.21.06-.41.15-.6.25,0,0,0,0,0,0l1.1-1.79c.27-.03.55-.04.82-.03l-.91,1.47c.09-.02.18-.03.27-.04l-2.97,4.81c-.03-.09-.06-.17-.09-.26l-.91,1.47c-.14-.24-.25-.49-.35-.74ZM8.05,18.1l.87-1.41s0,0,0,0c.05.14.12.28.19.42l1.12-1.81c-.01.2,0,.4.05.61.02.07.04.13.06.19l-.92,1.49c-.05-.06-.09-.12-.13-.18l-.8,1.29c-.16-.19-.31-.38-.44-.59ZM9.16,19.32c-.18-.15-.35-.3-.52-.47l.78-1.26s0,0,0,0c.08.11.17.21.26.3l.86-1.38c.1.15.21.29.35.42l-.81,1.32s.1.07.16.11c0,0,0,0,0,0l-.75,1.21c-.05-.04-.1-.07-.15-.11l.75-1.21c-.06-.04-.11-.09-.16-.14l-.75,1.22ZM9.05,21.38s-.1-.04-.15-.07l.73-1.18s.09.05.14.08l-.73,1.18ZM9.9,21.72c-.22-.07-.44-.15-.65-.25l.73-1.19c-.07-.03-.13-.05-.2-.08l.86-1.39c.17.07.35.11.53.13l-.89,1.45c.13.04.26.07.39.1,0,0,0,0,0,0l-.76,1.24ZM10.84,21.91c-.24-.03-.48-.07-.72-.13l.78-1.26c-.08,0-.15-.02-.23-.04l.96-1.55c.08,0,.16-.02.25-.04.18-.04.35-.11.51-.2l-1.14,1.85c.15,0,.31,0,.46-.02,0,0,0,0,0,0l-.85,1.38ZM11.89,21.91c-.27.03-.54.03-.82.02l.89-1.44c-.09.02-.18.03-.27.04l2.97-4.81c.03.09.06.17.09.26l1.01-1.63c.14.23.25.48.35.73l-1.21,1.96h0c0-.22-.01-.43-.05-.65l-2.47,3.99c.21-.06.41-.15.6-.25,0,0,0,0,0,0l-1.09,1.77ZM13.12,21.63c-.31.11-.63.19-.96.25l1.22-1.97c-.13.09-.26.16-.39.24l1.91-3.1c0,.15-.01.3-.03.46l1.34-2.16c.04.12.08.25.11.37.05.2.08.39.1.59l-3.3,5.33ZM13.46,21.49l2.99-4.84c.05,1-.2,2-.74,2.88-.55.9-1.35,1.56-2.25,1.96ZM14.71,23.1l3.63-5.87c0-.07,0-.14,0-.2l-3.81,6.17c.06-.03.12-.06.18-.09ZM34.61,12.3c-.28,0-.54.08-.7.41l-2.15,4.37-2.12-4.32c-.15-.32-.36-.45-.74-.45-.4,0-.72.3-.72.7v6.82c0,.38.31.69.69.69s.69-.31.69-.69v-4.19l1.5,3.12c.14.3.41.44.68.44s.54-.15.68-.45l1.5-3.11v4.18c0,.39.31.7.7.7s.69-.31.69-.7v-6.81c0-.38-.31-.7-.71-.7ZM25.21,15.81c-.47-.28-.94-.56-1.41-.85-.24-.15-.35-.36-.34-.66.01-.31.15-.53.42-.67.28-.14.57-.14.87-.1.18.02.35.09.51.17.17.09.26.24.26.44,0,.23.11.42.32.52.11.05.23.08.35.09.36.03.7-.2.75-.52.02-.14.02-.28,0-.42-.07-.53-.36-.94-.79-1.24-.67-.47-1.42-.58-2.21-.43-.67.13-1.22.47-1.62,1.04-.27.39-.3.84-.29,1.29,0,.44.15.83.43,1.17.26.31.56.57.9.77.43.26.87.5,1.31.76.27.16.51.34.71.58.47.54.24,1.33-.46,1.52-.25.07-.51.07-.77.02-.4-.08-.66-.32-.75-.72-.03-.13-.02-.26-.03-.38-.02-.21-.11-.38-.29-.5-.16-.1-.34-.14-.52-.12-.34.03-.6.3-.62.65,0,.15,0,.3.02.44.06.51.25.96.61,1.33.52.55,1.18.76,2.01.77.1-.01.3-.02.49-.05.6-.1,1.1-.37,1.49-.84.62-.75.66-2.04.05-2.85-.38-.51-.87-.88-1.41-1.2Z" fill="#fff" stroke-width="0"/></svg>