<?xml version="1.0" encoding="UTF-8"?><svg id="Logo" xmlns="http://www.w3.org/2000/svg" viewBox="0 0 46.77 32.6"><path d="M14.91,11.21l.92-1.5c-3.24-1.99-7.48-.97-9.47,2.28-1.99,3.24-.97,7.48,2.28,9.47l-.9,1.47h0c3.23,1.98,7.45.96,9.43-2.27,1.98-3.23.97-7.47-2.26-9.44Z" fill="#005895" opacity=".1" stroke-width="0"/><path d="M25.21,15.81c-.47-.28-.94-.56-1.41-.85-.24-.15-.35-.36-.34-.66.01-.31.15-.53.42-.67.28-.14.57-.14.87-.1.18.02.35.09.51.17.17.09.26.24.26.44,0,.23.11.42.32.52.11.05.23.08.35.09.36.03.7-.2.75-.52.02-.14.02-.28,0-.42-.07-.53-.36-.94-.79-1.24-.67-.47-1.42-.58-2.21-.43-.67.13-1.22.47-1.62,1.04-.27.39-.3.84-.29,1.29,0,.44.15.83.43,1.17.26.31.56.57.9.77.43.26.87.5,1.31.76.27.16.51.34.71.58.47.54.24,1.33-.46,1.52-.25.07-.51.07-.77.02-.4-.08-.66-.32-.75-.72-.03-.13-.02-.26-.03-.38-.02-.21-.11-.38-.29-.5-.16-.1-.34-.14-.52-.12-.34.03-.6.3-.62.65,0,.15,0,.3.02.44.06.51.25.96.61,1.33.52.55,1.18.76,2.01.77.1-.01.3-.02.49-.05.6-.1,1.1-.37,1.49-.84.62-.75.66-2.04.05-2.85-.38-.51-.87-.88-1.41-1.2ZM34.61,12.3c-.28,0-.54.08-.7.41l-2.15,4.37-2.12-4.32c-.15-.32-.36-.45-.74-.45-.4,0-.72.3-.72.7v6.82c0,.38.31.69.69.69s.69-.31.69-.69v-4.19l1.5,3.12c.14.3.41.44.68.44s.54-.15.68-.45l1.5-3.11v4.18c0,.39.31.7.7.7s.69-.31.69-.7v-6.81c0-.38-.31-.7-.71-.7ZM41.01,17.01c-.38-.51-.87-.88-1.41-1.2-.47-.28-.94-.56-1.41-.85-.24-.15-.35-.36-.34-.66.01-.31.15-.53.42-.67.28-.14.57-.14.87-.1.18.02.35.09.51.17.17.09.26.24.26.44,0,.23.11.42.32.52.11.05.23.08.35.09.36.03.7-.2.75-.52.02-.14.02-.28,0-.42-.07-.53-.36-.94-.79-1.24-.67-.47-1.42-.58-2.21-.43-.67.13-1.22.47-1.62,1.04-.27.39-.3.84-.29,1.29,0,.44.15.83.43,1.17.26.31.56.57.9.77.43.26.87.5,1.31.76.27.16.51.34.71.58.47.54.24,1.33-.46,1.52-.25.07-.51.07-.77.02-.4-.08-.66-.32-.75-.72-.03-.13-.02-.26-.03-.38-.02-.21-.11-.38-.29-.5-.16-.1-.34-.14-.52-.12-.34.03-.6.3-.62.65,0,.15,0,.3.02.44.06.51.25.96.61,1.33.52.55,1.18.76,2.01.77.1-.01.3-.02.49-.05.6-.1,1.1-.37,1.49-.84.62-.75.66-2.04.05-2.85Z" fill="#1e1e1c" stroke-width="0"/><path d="M14.09,12.61v-.04s.82-1.36.82-1.36c-2.41-1.48-5.57-.72-7.05,1.69-1.48,2.41-.72,5.57,1.69,7.05l.55-.9h0s-1.47,2.39-1.47,2.39c2.45,1.5,5.64.73,7.14-1.72,1.49-2.44.73-5.62-1.7-7.12Z" fill="#005895" opacity=".3" stroke-width="0"/><path d="M13.17,14.05l.89-1.46c-1.65-1.01-3.81-.49-4.83,1.16-1.01,1.65-.49,3.81,1.16,4.83l-.84,1.38c1.63,1,3.76.49,4.76-1.14,1-1.63.49-3.76-1.14-4.76Z" fill="#005895" opacity=".5" stroke-width="0"/><path d="M12.34,15.41l-.02.04h0s.86-1.4.86-1.4c-.85-.52-1.95-.25-2.47.59-.52.85-.25,1.95.59,2.47h0s-.89,1.46-.89,1.46c.86.54,1.99.26,2.52-.61.53-.88.28-2.01-.59-2.55Z" fill="#005aa0" stroke-width="0"/><path d="M16.61,15.76c-.32-1.34-1.12-2.47-2.26-3.23l.74-1.21s0,0,0,0h0s0,0,0,0c.03-.05.04-.1.02-.16-.01-.05-.05-.1-.09-.13-2.51-1.54-5.8-.75-7.34,1.76-.74,1.22-.97,2.65-.64,4.03.32,1.32,1.11,2.44,2.23,3.19l-.81,1.32s-.04.1-.03.16c.01.05.05.1.09.13.88.54,1.85.79,2.81.79,1.82,0,3.6-.92,4.62-2.58.75-1.23.98-2.68.65-4.08ZM15.61,19.62c-1.4,2.28-4.35,3.04-6.67,1.75l1.55-2.52c.42.21.89.26,1.35.15.53-.13.98-.46,1.27-.93.59-.97.29-2.24-.66-2.83l-.22.36c.75.47.99,1.48.52,2.26-.23.38-.59.64-1.01.74-.42.1-.85.03-1.22-.2-.05-.03-.1-.04-.16-.03-.05.01-.1.05-.13.09l-.73,1.2c-1.03-.69-1.75-1.72-2.04-2.93-.31-1.28-.1-2.6.59-3.72,1.38-2.25,4.29-3,6.58-1.73l-1.52,2.49c-.91-.44-2.03-.12-2.57.76-.28.46-.37,1-.24,1.52.13.52.45.96.9,1.24l.22-.36c-.36-.22-.62-.57-.71-.98s-.03-.84.19-1.2c.46-.75,1.44-.98,2.18-.52.1.06.23.03.29-.07h0s0,0,0,0l.78-1.27c1.04.7,1.78,1.74,2.07,2.97.31,1.29.1,2.63-.6,3.77Z" fill="#1e1e1c" stroke-width="0"/></svg>