<?xml version="1.0" encoding="UTF-8"?><svg id="Logo" xmlns="http://www.w3.org/2000/svg" viewBox="0 0 192.76 92.13"><path d="M89.01,32.22c.69,0,1.56-.1,2.23-.35.57-.24,1.01-.59,1.01-1.09s-.3-.9-.83-.9c-.33,0-.55.14-.94.28-.29.09-.69.19-1.32.19-1,0-1.47-.64-1.47-1.68v-.35h4.14c.43,0,.8-.35.8-.83v-.71c0-2.04-1.01-3.77-3.62-3.77s-3.65,1.78-3.65,3.81v1.61c0,2.03.95,3.79,3.65,3.79ZM87.7,26.37c0-.97.45-1.54,1.37-1.54s1.32.55,1.32,1.54v.22h-2.68v-.22ZM80.07,30.3c-.4.11-.81.11-1.21.03-.64-.12-1.05-.5-1.18-1.14-.04-.2-.04-.4-.05-.6-.03-.34-.17-.6-.46-.79-.25-.16-.53-.21-.82-.19-.54.05-.95.47-.97,1.02,0,.23,0,.47.03.7.09.8.4,1.51.95,2.09.82.86,1.85,1.2,3.16,1.21.16-.02.47-.03.78-.08.94-.16,1.73-.58,2.34-1.32.98-1.19,1.04-3.2.08-4.48-.6-.8-1.37-1.39-2.22-1.89-.74-.44-1.48-.88-2.22-1.34-.38-.23-.55-.57-.53-1.04.02-.49.23-.84.66-1.06.43-.22.9-.23,1.36-.16.28.04.55.14.8.27.27.14.41.37.41.7,0,.37.17.66.51.81.17.08.36.13.55.15.57.05,1.1-.32,1.18-.82.03-.21.03-.44,0-.66-.11-.84-.56-1.47-1.24-1.95-1.06-.74-2.24-.92-3.48-.68-1.06.2-1.93.73-2.54,1.64-.42.62-.47,1.31-.46,2.03.01.7.23,1.3.68,1.84.41.49.88.89,1.42,1.22.68.41,1.37.79,2.06,1.19.42.24.8.54,1.12.91.75.85.37,2.1-.72,2.39ZM153.63,41.89c-2.53,0-3.65,1.78-3.65,3.81v1.61c0,2.03.95,3.79,3.65,3.79.69,0,1.56-.1,2.23-.35.57-.24,1.01-.59,1.01-1.09s-.3-.9-.83-.9c-.33,0-.55.14-.94.28-.29.09-.69.19-1.32.19-1,0-1.47-.64-1.47-1.68v-.35h4.14c.43,0,.8-.35.8-.83v-.71c0-2.04-1.01-3.77-3.62-3.77ZM155,45.47h-2.68v-.22c0-.97.45-1.54,1.37-1.54s1.32.55,1.32,1.54v.22ZM32.49,20.34s-.07.04-.11.06l.05-.09c-.23.12-.45.23-.68.35l-13.37,21.74c0,.25,0,.5,0,.76l.04-.07s0,.08,0,.12l14.07-22.88ZM104.47,31.85c.61.21,1.26.36,2.51.36,1.85,0,3.62-.8,3.62-2.86,0-1.89-1.21-2.37-2.35-2.61-1.14-.26-2.13-.3-2.13-1.09,0-.4.36-.74,1.18-.74.59,0,1.04.12,1.7.35.52.16,1.06-.14,1.21-.64.16-.52-.09-1.04-.62-1.23-.66-.22-1.32-.38-2.42-.38-1.73,0-3.24.95-3.24,2.8,0,1.7,1,2.23,2.06,2.49,1.18.31,2.41.28,2.41,1.16,0,.52-.5.85-1.39.85s-1.32-.14-1.82-.33c-.5-.17-1.09.05-1.28.62-.14.48.07,1.07.57,1.25ZM94.78,25.74v5.32c0,.64.52,1.16,1.18,1.16s1.16-.52,1.16-1.16v-5.14c.31-.43.81-.71,1.46-.71,1.02,0,1.21.64,1.21,1.35v4.5c0,.64.52,1.16,1.16,1.16s1.18-.52,1.18-1.16v-4.78c0-1.96-.73-3.27-2.91-3.27-1.14,0-1.99.35-2.62.94-.1-.17-.24-.33-.38-.45-.35-.24-.75-.38-1.11-.38-.68,0-1.16.29-1.16.97,0,.31.14.54.33.67.26.23.5.4.5.99ZM116.95,45.85v.67c0,2.51.76,3.93,3.15,3.93.62,0,1.33-.23,1.85-.54v.43c0,1.35-.67,1.92-1.85,1.92-.54,0-.85-.09-1.13-.19-.28-.09-.45-.19-.69-.19-.54,0-.95.41-.95.93,0,.45.31.76.75.97.67.3,1.63.36,2.18.36,2.54,0,4.03-1.4,4.03-3.96v-7.13c0-.64-.45-1.18-1.18-1.18-.55,0-.93.31-1.09.73-.5-.43-1.2-.73-1.92-.73-2.29,0-3.15,1.49-3.15,3.96ZM119.3,45.51c0-1.07.38-1.64,1.33-1.64.4,0,.93.21,1.32.57v3.58c-.4.31-.97.47-1.33.47-1,0-1.32-.52-1.32-1.58v-1.4ZM163.83,41.89c-1.14,0-1.99.35-2.62.94-.1-.17-.24-.33-.38-.45-.35-.24-.75-.38-1.11-.38-.68,0-1.16.29-1.16.97,0,.31.14.54.33.67.26.23.5.4.5.99v5.32c0,.64.52,1.16,1.18,1.16s1.16-.52,1.16-1.16v-5.14c.31-.43.81-.71,1.46-.71,1.02,0,1.21.64,1.21,1.35v4.5c0,.64.52,1.16,1.16,1.16s1.18-.52,1.18-1.16v-4.78c0-1.96-.73-3.27-2.91-3.27ZM121.87,25.74v5.32c0,.64.52,1.16,1.18,1.16s1.16-.52,1.16-1.16v-4.81c.23-.73.8-1,1.49-1,.53,0,.69.09.99.09.73,0,1.11-.55,1.11-1.14,0-.78-.78-1.16-1.56-1.16-.55,0-1.61.12-2.39,1.09-.35-.57-.97-1-1.63-1-.73,0-1.18.31-1.18.97,0,.31.14.54.33.67.26.23.5.4.5.99ZM173.31,48.93h-.33c-1.11,0-1.37-.59-1.37-2.01l-.02-3.01h1.33c.54,0,.97-.43.97-.95s-.43-.97-.97-.97h-1.33v-1.18c0-.64-.52-1.18-1.16-1.18s-1.18.54-1.18,1.18v1.18h-.28c-.52,0-.95.43-.95.97s.43.95.95.95h.28v3.06c0,2.41.9,4.02,3.39,4.02h.66c.55,0,1.02-.47,1.02-1.04s-.47-1.02-1.02-1.02ZM91.92,45.65c-2.22,0-3.43,1-3.43,2.61v.12c0,1.64,1.06,2.72,3.11,2.72.76,0,1.71-.16,2.39-.73.12.21.33.36.52.49.3.17.61.24.92.24.66,0,1.14-.28,1.14-.95,0-.33-.16-.54-.33-.69-.26-.22-.45-.38-.45-.97v-2.89c0-2.6-.95-3.71-3.46-3.71-.59,0-1.49.09-2.22.38-.57.23-1.01.57-1.01,1.07s.36.88.9.88c.31,0,.54-.14.9-.26.31-.12.68-.22,1.23-.22,1.06,0,1.32.57,1.32,1.58v.33h-1.54ZM93.46,48.09c0,.92-.55,1.37-1.35,1.37-.88,0-1.3-.38-1.3-1.02v-.12c0-.57.35-.99,1.39-.99h1.26v.76ZM52.84,71.66l-.26.42c.23-.12.45-.23.68-.35l13.37-21.74c0-.09,0-.19,0-.28l.02-.03c0-.25,0-.5,0-.76l-14.07,22.88c.08-.04.17-.09.25-.13ZM91.23,60.77c-.43,0-.9.23-1.06.78l-1.61,5.07c-.69-1.92-1.28-3.79-1.68-5.06-.14-.54-.55-.8-.99-.8-.68,0-1.37.55-1.11,1.42.54,1.75,1.66,4.81,2.68,7.32-.64,1.04-1.33,1.23-2.04,1.28-.73.07-1.04.59-1.04,1.11,0,.61.47,1.21,1.3,1.14,2.22-.17,3.39-1.61,4.41-4.45l2.2-6.27c.33-.9-.35-1.56-1.07-1.56ZM97.65,64.51c-1.14-.26-2.13-.3-2.13-1.09,0-.4.36-.74,1.18-.74.59,0,1.04.12,1.7.35.52.16,1.06-.14,1.21-.64.16-.52-.09-1.04-.62-1.23-.66-.22-1.32-.38-2.42-.38-1.73,0-3.24.95-3.24,2.8,0,1.7,1,2.23,2.06,2.49,1.18.31,2.41.28,2.41,1.16,0,.52-.5.85-1.39.85s-1.32-.14-1.82-.33c-.5-.17-1.09.05-1.28.62-.14.48.07,1.07.57,1.25.61.21,1.26.36,2.51.36,1.85,0,3.62-.8,3.62-2.86,0-1.89-1.21-2.37-2.35-2.61ZM102.15,44.09c1.02,0,1.21.64,1.21,1.35v4.5c0,.64.52,1.16,1.16,1.16s1.18-.52,1.18-1.16v-4.78c0-1.96-.73-3.27-2.91-3.27-1.14,0-1.99.35-2.61.94-.1-.17-.24-.33-.38-.45-.35-.24-.74-.38-1.11-.38-.68,0-1.16.29-1.16.97,0,.31.14.54.33.67.26.23.5.4.5.99v5.32c0,.64.52,1.16,1.18,1.16s1.16-.52,1.16-1.16v-5.14c.31-.43.81-.71,1.45-.71ZM85.45,51.15c.61,0,1.09-.48,1.09-1.11v-10.72c0-.61-.48-1.11-1.12-1.11-.43,0-.85.12-1.11.64l-3.38,6.87-3.34-6.8c-.24-.5-.57-.71-1.16-.71-.62,0-1.12.47-1.12,1.11v10.73c0,.61.48,1.09,1.09,1.09s1.09-.48,1.09-1.09v-6.6l2.36,4.92c.22.47.64.69,1.07.69s.85-.24,1.07-.71l2.35-4.9v6.58c0,.61.49,1.11,1.11,1.11ZM145.04,41.89c-1.14,0-2.01.36-2.63.97-.43-.61-1.16-.97-2.3-.97s-1.94.35-2.56.9c-.1-.16-.24-.29-.38-.41-.35-.24-.75-.38-1.11-.38-.68,0-1.16.29-1.16.97,0,.31.14.54.33.67.26.23.5.4.5.99v5.32c0,.64.52,1.16,1.18,1.16s1.16-.52,1.16-1.16v-5.18c.31-.41.8-.67,1.4-.67,1,0,1.21.64,1.21,1.35v4.5c0,.64.52,1.16,1.16,1.16s1.18-.52,1.18-1.16v-4.8c0-.12-.02-.24-.03-.35.31-.41.8-.71,1.44-.71,1,0,1.19.64,1.19,1.35v4.5c0,.64.54,1.16,1.16,1.16.66,0,1.18-.52,1.18-1.16v-4.8c0-1.96-.73-3.25-2.91-3.25ZM58.28,59.31c1.17-1.92,1.99-3.98,2.47-6.1l5.44-8.84c-.04-.19-.07-.38-.11-.57l-5.09,8.28c.32-1.9.36-3.84.12-5.77l3.87-6.29c-.06-.15-.12-.3-.18-.46l-3.77,6.13c-.09-.57-.19-1.14-.32-1.7-.18-.76-.42-1.5-.69-2.23l3.29-5.36c-.07-.13-.14-.26-.22-.39l-3.25,5.29c-.42-1.08-.93-2.11-1.53-3.09l2.98-4.84c-.08-.11-.17-.22-.26-.33l-2.95,4.8c-.56-.88-1.19-1.72-1.89-2.51l2.81-4.57c-.1-.1-.18-.2-.28-.29l-2.81,4.56c-.67-.73-1.39-1.42-2.17-2.05l2.73-4.44c-.1-.08-.22-.15-.32-.22l-2.73,4.43c-.39-.3-.79-.6-1.2-.88l2.78-4.54s0,0,0,0h0s0,0,0,0c.11-.18.14-.39.09-.59-.05-.2-.18-.38-.35-.49-.64-.39-1.3-.74-1.96-1.05l3.05-4.96c-.12-.06-.23-.13-.35-.19l-3.07,4.99c-.92-.41-1.86-.75-2.81-1.01l3.15-5.12c-.13-.05-.26-.08-.39-.12l-3.15,5.12c-1.03-.26-2.07-.42-3.12-.51l3.32-5.39c-.14-.03-.27-.06-.41-.08l-3.34,5.43c-1.16-.08-2.32-.05-3.48.07l3.64-5.92c-.15,0-.3-.02-.44-.03l-3.69,6c-1.36.18-2.71.49-4.01.94l4.21-6.84c-.16.01-.33.03-.49.05l-4.33,7.04c-1.89.73-3.68,1.74-5.29,3.03l5.75-9.35c-.19.05-.38.11-.56.16l-6.13,9.97c-1.38,1.25-2.62,2.71-3.64,4.38-1.01,1.64-1.75,3.39-2.24,5.2l-6.13,9.97c.04.19.07.38.11.57l5.74-9.34c-.41,1.99-.52,4.04-.31,6.08l-4.33,7.05c.06.15.12.3.18.46l4.21-6.85c.09.67.21,1.34.38,2.01.16.68.37,1.34.59,1.99l-3.69,6c.07.13.14.26.22.39l3.65-5.94c.41,1.09.92,2.14,1.51,3.13l-3.35,5.45c.08.11.17.22.26.33l3.33-5.41c.56.89,1.18,1.74,1.87,2.53l-3.17,5.16c.1.1.18.2.28.29l3.17-5.15c.67.73,1.38,1.43,2.16,2.06l-3.09,5.02c.1.08.22.15.32.22l3.08-5.01c.4.31.8.62,1.22.9l-3.05,4.97c-.11.18-.14.39-.09.59.05.2.18.38.35.49.63.39,1.28.72,1.94,1.03l-3.14,5.11c.12.06.23.13.35.19l3.15-5.13c.92.41,1.85.76,2.8,1.02l-3.22,5.24c.13.05.26.08.39.12l3.23-5.26c1.02.26,2.06.44,3.09.55l-3.38,5.5c.14.03.27.06.41.08l3.4-5.54c.51.04,1.02.06,1.54.06.64,0,1.28-.04,1.92-.1l-3.68,5.99c.15,0,.3.02.44.03l3.73-6.06c1.35-.16,2.68-.45,3.97-.88l-4.21,6.84c.16-.01.33-.03.49-.05l4.31-7.01c1.81-.66,3.53-1.56,5.1-2.72l-5.54,9c.19-.05.38-.11.56-.16l5.86-9.52c1.69-1.39,3.18-3.08,4.38-5.04ZM55.03,36.4c.6.68,1.14,1.4,1.64,2.16l-3.58,5.81s0,0,0,0c-.2-.53-.44-1.05-.71-1.55l-3.72,6.04c.04-.99-.11-1.98-.44-2.91l3.01-4.89c.17.22.34.45.49.68l3.29-5.36ZM52.57,34.07c.68.53,1.31,1.11,1.91,1.73l-3.24,5.26s0,0,0,0c-.3-.39-.62-.76-.97-1.12l-2.76,4.5c-.35-.57-.77-1.09-1.27-1.56l2.6-4.23c-.14-.11-.33-.25-.53-.39.07-.12.13-.22.16-.28h0s0,0,0,0l2.92-4.77c.19.12.36.27.54.4l-3.1,5.04c.21.16.41.34.61.51l3.13-5.09ZM52.68,26.91c.18.09.37.17.56.27l-2.78,4.53c-.18-.1-.36-.21-.55-.3l2.77-4.51ZM49.57,25.65c.82.24,1.62.55,2.41.91l-2.8,4.55c.24.1.49.19.73.31l-2.98,4.85c-.64-.24-1.3-.38-1.96-.44l3.14-5.1c-.48-.15-.95-.27-1.44-.36,0,0,0,0,0,0l2.9-4.71ZM46.09,24.97c.9.09,1.79.25,2.68.47l-2.95,4.79c.28.03.56.08.83.13l-3.39,5.51c-1,.14-1.96.47-2.83.98l4.13-6.71c-.57-.02-1.13,0-1.7.07h0s3.22-5.23,3.22-5.23ZM28.54,33.68c1.94-3.16,4.68-5.54,7.81-7.02l-10.51,17.1c-.09-3.52.82-7,2.71-10.08ZM26.33,47.63c-.2-.84-.32-1.68-.41-2.53l11.66-18.97c1.16-.45,2.36-.79,3.58-1l-4.53,7.36c.47-.33.95-.61,1.45-.87l-7.05,11.47c0-.56.04-1.12.12-1.69l-4.51,7.33c-.11-.37-.23-.73-.32-1.11ZM26.98,49.72l4.06-6.61s0,0,0,0c-.01.81.05,1.61.19,2.4l9.09-14.79c-.77.24-1.51.54-2.22.92,0,0,0,0,0,0l4.07-6.62c1-.12,2.02-.16,3.03-.11l-3.34,5.43c.33-.06.67-.11,1-.14l-10.95,17.81c-.12-.32-.23-.64-.33-.96l-3.34,5.43c-.5-.87-.92-1.8-1.27-2.76ZM30.35,55.4c-.6-.69-1.14-1.42-1.63-2.18l3.2-5.2s0,0,0,0c.2.53.44,1.05.71,1.55l4.13-6.72c-.05.74.02,1.5.19,2.24.06.25.13.49.21.72l-3.39,5.52c-.17-.22-.34-.45-.49-.68l-2.93,4.77ZM32.8,57.74c-.68-.54-1.31-1.12-1.9-1.74l2.88-4.68s0,0,0,0c.3.39.62.76.97,1.12l3.15-5.12c.36.57.78,1.09,1.28,1.55l-3,4.87c.18.14.38.26.57.39,0,0,0,0,0,0l-2.75,4.49c-.19-.13-.37-.28-.56-.41l2.75-4.47c-.21-.16-.41-.34-.61-.51l-2.78,4.51ZM32.42,65.33c-.18-.09-.36-.17-.53-.26l2.69-4.39c.18.1.35.2.53.29l-2.68,4.36ZM35.53,66.61c-.81-.25-1.61-.56-2.4-.92l2.71-4.4c-.24-.1-.49-.19-.73-.31l3.16-5.13c.63.24,1.28.4,1.94.47l-3.29,5.35c.48.15.95.27,1.44.36,0,0,0,0,0,0l-2.82,4.58ZM38.99,67.31c-.89-.09-1.78-.26-2.67-.49l2.86-4.66c-.28-.03-.56-.08-.83-.13l3.52-5.73c.3-.04.6-.08.9-.15.66-.16,1.28-.41,1.87-.73l-4.2,6.84c.57.02,1.13,0,1.7-.07,0,0,0,0,0,0l-3.15,5.12ZM42.89,67.3c-1,.1-2,.13-3.01.07l3.27-5.32c-.33.06-.67.11-1,.14l10.95-17.81c.12.32.23.64.33.96l3.71-6.04c.51.86.93,1.78,1.29,2.72l-4.46,7.25s0,0,0,0c.01-.81-.05-1.61-.19-2.4l-9.09,14.79c.77-.24,1.51-.54,2.22-.92,0,0,0,0,0,0l-4.02,6.54ZM47.41,66.28c-1.14.42-2.32.72-3.53.91l4.49-7.3c-.47.33-.95.61-1.45.87l7.05-11.47c0,.56-.04,1.12-.12,1.69l4.92-8.01c.15.45.29.91.4,1.38.17.72.29,1.45.38,2.18l-12.15,19.75ZM48.65,65.76l11.02-17.93c.18,3.72-.74,7.41-2.73,10.65-2.04,3.33-4.97,5.78-8.29,7.27ZM80.52,63.57c-.74-.44-1.48-.88-2.22-1.34-.38-.23-.55-.57-.53-1.04.02-.49.23-.84.66-1.06.43-.22.9-.23,1.36-.16.28.04.55.14.8.27.27.14.41.37.41.7,0,.37.17.66.51.81.17.08.36.13.55.15.57.05,1.1-.32,1.18-.82.03-.21.03-.44,0-.66-.11-.83-.56-1.47-1.24-1.95-1.06-.74-2.24-.92-3.48-.68-1.06.2-1.93.73-2.54,1.64-.42.62-.47,1.31-.46,2.03.01.7.23,1.3.68,1.84.41.49.88.89,1.42,1.22.68.41,1.37.79,2.06,1.19.42.24.8.54,1.12.91.75.85.37,2.1-.72,2.39-.4.11-.81.11-1.21.03-.64-.12-1.05-.5-1.18-1.14-.04-.2-.04-.4-.05-.6-.03-.34-.17-.6-.46-.79-.25-.16-.53-.21-.82-.19-.54.05-.95.47-.97,1.02,0,.23,0,.47.03.7.09.8.4,1.51.95,2.09.82.86,1.85,1.2,3.16,1.21.16-.02.47-.03.78-.08.94-.16,1.73-.58,2.34-1.32.98-1.19,1.04-3.2.08-4.48-.6-.8-1.37-1.39-2.22-1.89ZM106.03,67.82h-.33c-1.11,0-1.37-.59-1.37-2.01l-.02-3.01h1.33c.54,0,.97-.43.97-.95s-.43-.97-.97-.97h-1.33v-1.18c0-.64-.52-1.18-1.16-1.18s-1.18.54-1.18,1.18v1.18h-.28c-.52,0-.95.43-.95.97s.43.95.95.95h.28v3.06c0,2.41.9,4.02,3.39,4.02h.66c.55,0,1.02-.47,1.02-1.04s-.47-1.02-1.02-1.02ZM119.6,28.55v-1.85c0-2.01-1.14-3.69-3.72-3.69s-3.72,1.68-3.72,3.69v1.85c0,2.01,1.14,3.67,3.72,3.67s3.72-1.66,3.72-3.67ZM117.26,28.53c0,1.02-.43,1.59-1.39,1.59s-1.37-.57-1.37-1.59v-1.82c0-1.02.43-1.59,1.37-1.59s1.39.57,1.39,1.59v1.82ZM129.97,41.89c-2.53,0-3.65,1.78-3.65,3.81v1.61c0,2.03.95,3.79,3.65,3.79.69,0,1.56-.1,2.23-.35.57-.24,1.01-.59,1.01-1.09s-.3-.9-.83-.9c-.33,0-.55.14-.94.28-.29.09-.69.19-1.32.19-1,0-1.47-.64-1.47-1.68v-.35h4.14c.43,0,.8-.35.8-.83v-.71c0-2.04-1.01-3.77-3.62-3.77ZM131.34,45.47h-2.68v-.22c0-.97.45-1.54,1.37-1.54s1.32.55,1.32,1.54v.22ZM126.44,60.77c-1.14,0-2.01.36-2.63.97-.43-.61-1.16-.97-2.3-.97s-1.94.35-2.56.9c-.1-.16-.24-.29-.38-.41-.35-.24-.74-.38-1.11-.38-.68,0-1.16.29-1.16.97,0,.31.14.54.33.67.26.23.5.4.5.99v5.32c0,.64.52,1.16,1.18,1.16s1.16-.52,1.16-1.16v-5.18c.31-.41.8-.67,1.4-.67,1.01,0,1.21.64,1.21,1.35v4.5c0,.64.52,1.16,1.16,1.16s1.18-.52,1.18-1.16v-4.8c0-.12-.02-.24-.03-.35.31-.41.8-.71,1.44-.71,1.01,0,1.2.64,1.2,1.35v4.5c0,.64.54,1.16,1.16,1.16.66,0,1.18-.52,1.18-1.16v-4.8c0-1.96-.73-3.25-2.91-3.25ZM111.36,60.77c-2.53,0-3.65,1.78-3.65,3.81v1.61c0,2.03.95,3.79,3.65,3.79.69,0,1.56-.1,2.23-.35.57-.24,1.01-.59,1.01-1.09s-.3-.9-.83-.9c-.33,0-.55.14-.94.28-.29.09-.69.19-1.32.19-1,0-1.47-.64-1.47-1.68v-.35h4.14c.43,0,.8-.35.8-.83v-.71c0-2.04-1.01-3.77-3.62-3.77ZM112.73,64.36h-2.68v-.22c0-.97.45-1.54,1.37-1.54s1.32.55,1.32,1.54v.22ZM114.75,48.48v-2.89c0-2.6-.95-3.71-3.46-3.71-.59,0-1.49.09-2.22.38-.57.23-1.01.57-1.01,1.07s.36.88.9.88c.31,0,.54-.14.9-.26.31-.12.68-.22,1.23-.22,1.06,0,1.32.57,1.32,1.58v.33h-1.54c-2.22,0-3.43,1-3.43,2.61v.12c0,1.64,1.06,2.72,3.11,2.72.76,0,1.71-.16,2.39-.73.12.21.33.36.52.49.3.17.61.24.92.24.66,0,1.14-.28,1.14-.95,0-.33-.16-.54-.33-.69-.26-.22-.45-.38-.45-.97ZM112.42,48.09c0,.92-.55,1.37-1.35,1.37-.88,0-1.3-.38-1.3-1.02v-.12c0-.57.35-.99,1.39-.99h1.26v.76Z" fill="#fff" stroke-width="0"/></svg>