<?xml version="1.0" encoding="UTF-8"?><svg id="Logo" xmlns="http://www.w3.org/2000/svg" viewBox="0 0 77.95 32.6"><path d="M50.65,10.62v1.49c0,.18.15.33.33.33s.32-.15.32-.33v-1.44c.09-.12.23-.2.41-.2.29,0,.34.18.34.38v1.26c0,.18.15.33.32.33s.33-.15.33-.33v-1.34c0-.55-.2-.92-.81-.92-.32,0-.56.1-.73.26-.03-.05-.07-.09-.11-.13-.1-.07-.21-.11-.31-.11-.19,0-.33.08-.33.27,0,.09.04.15.09.19.07.06.14.11.14.28ZM49.85,16.19c-.62,0-.96.28-.96.73v.03c0,.46.3.76.87.76.21,0,.48-.04.67-.2.03.06.09.1.15.14.08.05.17.07.26.07.18,0,.32-.08.32-.27,0-.09-.04-.15-.09-.19-.07-.06-.13-.11-.13-.27v-.81c0-.73-.27-1.04-.97-1.04-.17,0-.42.02-.62.11-.16.06-.28.16-.28.3s.1.25.25.25c.09,0,.15-.04.25-.07.09-.03.19-.06.34-.06.3,0,.37.16.37.44v.09h-.43ZM50.28,16.88c0,.26-.16.38-.38.38-.25,0-.36-.11-.36-.29v-.03c0-.16.1-.28.39-.28h.35v.21ZM54.07,11.9c-.25,0-.37-.04-.51-.09-.14-.05-.31.01-.36.17-.04.14.02.3.16.35.17.06.35.1.7.1.52,0,1.01-.22,1.01-.8,0-.53-.34-.66-.66-.73-.32-.07-.6-.08-.6-.31,0-.11.1-.21.33-.21.16,0,.29.03.48.1.15.04.3-.04.34-.18.04-.15-.02-.29-.17-.34-.18-.06-.37-.11-.68-.11-.49,0-.91.27-.91.79,0,.48.28.63.58.7.33.09.67.08.67.32,0,.15-.14.24-.39.24ZM31.77,9.47l-3.63,5.87c0,.07,0,.14,0,.2l3.81-6.17c-.06.03-.12.06-.18.09ZM49.03,12.43c.19,0,.44-.03.63-.1.16-.07.28-.16.28-.31s-.08-.25-.23-.25c-.09,0-.16.04-.26.08-.08.02-.19.05-.37.05-.28,0-.41-.18-.41-.47v-.1h1.16c.12,0,.22-.1.22-.23v-.2c0-.57-.28-1.06-1.01-1.06s-1.02.5-1.02,1.07v.45c0,.57.27,1.06,1.02,1.06ZM48.66,10.79c0-.27.13-.43.38-.43s.37.16.37.43v.06h-.75v-.06ZM58.24,10.62v1.49c0,.18.15.33.33.33s.32-.15.32-.33v-1.35c.06-.2.22-.28.42-.28.15,0,.19.02.28.02.2,0,.31-.16.31-.32,0-.22-.22-.32-.44-.32-.16,0-.45.03-.67.31-.1-.16-.27-.28-.46-.28-.2,0-.33.09-.33.27,0,.09.04.15.09.19.07.06.14.11.14.28ZM56.86,16.25v.19c0,.7.21,1.1.88,1.1.17,0,.37-.06.52-.15v.12c0,.38-.19.54-.52.54-.15,0-.24-.02-.32-.05-.08-.02-.13-.05-.19-.05-.15,0-.27.12-.27.26,0,.13.09.21.21.27.19.08.46.1.61.1.71,0,1.13-.39,1.13-1.11v-2c0-.18-.13-.33-.33-.33-.16,0-.26.09-.31.2-.14-.12-.34-.2-.54-.2-.64,0-.88.42-.88,1.11ZM57.52,16.16c0-.3.11-.46.37-.46.11,0,.26.06.37.16v1c-.11.09-.27.13-.37.13-.28,0-.37-.15-.37-.44v-.39ZM17.68,12.19c-.28,0-.54.08-.7.41l-2.15,4.37-2.12-4.32c-.15-.32-.36-.45-.74-.45-.4,0-.72.3-.72.7v6.82c0,.38.31.69.69.69s.69-.31.69-.69v-4.19l1.5,3.12c.14.3.41.44.68.44s.54-.15.68-.45l1.5-3.11v4.18c0,.39.31.7.7.7s.69-.31.69-.7v-6.81c0-.38-.31-.7-.71-.7ZM46.52,11.89c-.11.03-.23.03-.34,0-.18-.03-.29-.14-.33-.32-.01-.06-.01-.11-.01-.17,0-.09-.05-.17-.13-.22-.07-.05-.15-.06-.23-.05-.15.01-.27.13-.27.28,0,.06,0,.13,0,.19.03.22.11.42.27.59.23.24.52.34.89.34.05,0,.13,0,.22-.02.26-.04.49-.16.66-.37.28-.33.29-.9.02-1.26-.17-.22-.38-.39-.62-.53-.21-.12-.42-.25-.62-.37-.11-.07-.16-.16-.15-.29,0-.14.06-.23.19-.3.12-.06.25-.06.38-.05.08.01.15.04.22.08.07.04.12.1.12.2,0,.1.05.19.14.23.05.02.1.04.15.04.16.01.31-.09.33-.23,0-.06,0-.12,0-.18-.03-.23-.16-.41-.35-.55-.3-.21-.63-.26-.98-.19-.3.06-.54.21-.71.46-.12.17-.13.37-.13.57,0,.2.06.37.19.51.11.14.25.25.4.34.19.12.38.22.58.33.12.07.22.15.31.25.21.24.1.59-.2.67ZM22.67,15.69c-.47-.28-.94-.56-1.41-.85-.24-.15-.35-.36-.34-.66.01-.31.15-.53.42-.67.28-.14.57-.14.87-.1.18.02.35.09.51.17.17.09.26.24.26.44,0,.23.11.42.32.52.11.05.23.08.35.09.36.03.7-.2.75-.52.02-.14.02-.28,0-.42-.07-.53-.36-.94-.79-1.24-.67-.47-1.42-.58-2.21-.43-.67.13-1.22.47-1.62,1.04-.27.39-.3.84-.29,1.29,0,.44.15.83.43,1.17.26.31.56.57.9.77.43.26.87.5,1.31.76.27.16.51.34.71.58.47.54.24,1.33-.46,1.52-.25.07-.51.07-.77.02-.4-.08-.66-.32-.75-.72-.03-.13-.02-.26-.03-.38-.02-.21-.11-.38-.29-.5-.16-.1-.34-.14-.52-.12-.34.03-.6.3-.62.65,0,.15,0,.3.02.44.06.51.25.96.61,1.33.52.55,1.18.76,2.01.77.1-.01.3-.02.49-.05.6-.1,1.1-.37,1.49-.84.62-.75.66-2.04.05-2.85-.38-.51-.87-.88-1.41-1.2ZM8.28,15.69c-.47-.28-.94-.56-1.41-.85-.24-.15-.35-.36-.34-.66.01-.31.15-.53.42-.67.28-.14.57-.14.87-.1.18.02.35.09.51.17.17.09.26.24.26.44,0,.23.11.42.32.52.11.05.23.08.35.09.36.03.7-.2.75-.52.02-.14.02-.28,0-.42-.07-.53-.36-.94-.79-1.24-.67-.47-1.42-.58-2.21-.43-.67.13-1.22.47-1.62,1.04-.27.39-.3.84-.29,1.29,0,.44.15.83.43,1.17.26.31.56.57.9.77.43.26.87.5,1.31.76.27.16.51.34.71.58.47.54.24,1.33-.46,1.52-.25.07-.51.07-.77.02-.4-.08-.66-.32-.75-.72-.03-.13-.02-.26-.03-.38-.02-.21-.11-.38-.29-.5-.16-.1-.34-.14-.52-.12-.34.03-.6.3-.62.65,0,.15,0,.3.02.44.06.51.25.96.61,1.33.52.55,1.18.76,2.01.77.1-.01.3-.02.49-.05.6-.1,1.1-.37,1.49-.84.62-.75.66-2.04.05-2.85-.38-.51-.87-.88-1.41-1.2ZM64.73,15.14c-.32,0-.56.1-.74.27-.12-.17-.32-.27-.65-.27s-.54.1-.72.25c-.03-.04-.07-.08-.11-.12-.1-.07-.21-.11-.31-.11-.19,0-.33.08-.33.27,0,.09.04.15.09.19.07.06.14.11.14.28v1.49c0,.18.15.33.33.33s.32-.15.32-.33v-1.45c.09-.12.22-.19.39-.19.28,0,.34.18.34.38v1.26c0,.18.15.33.32.33s.33-.15.33-.33v-1.34s0-.07,0-.1c.09-.12.22-.2.4-.2.28,0,.33.18.33.38v1.26c0,.18.15.33.33.33.18,0,.33-.15.33-.33v-1.34c0-.55-.2-.91-.82-.91ZM59.52,20.43c-.32,0-.56.1-.74.27-.12-.17-.33-.27-.65-.27s-.54.1-.72.25c-.03-.04-.07-.08-.11-.12-.1-.07-.21-.11-.31-.11-.19,0-.33.08-.33.27,0,.09.04.15.09.19.07.06.14.11.14.28v1.49c0,.18.15.33.33.33s.32-.15.32-.33v-1.45c.09-.12.22-.19.39-.19.28,0,.34.18.34.38v1.26c0,.18.15.33.33.33s.33-.15.33-.33v-1.34s0-.07,0-.1c.09-.12.22-.2.4-.2.28,0,.34.18.34.38v1.26c0,.18.15.33.32.33.18,0,.33-.15.33-.33v-1.34c0-.55-.2-.91-.82-.91ZM57.6,11.4v-.52c0-.56-.32-1.03-1.04-1.03s-1.04.47-1.04,1.03v.52c0,.56.32,1.03,1.04,1.03s1.04-.47,1.04-1.03ZM56.95,11.4c0,.29-.12.45-.39.45s-.38-.16-.38-.45v-.51c0-.29.12-.45.38-.45s.39.16.39.45v.51ZM56.24,16.99v-.81c0-.73-.27-1.04-.97-1.04-.17,0-.42.02-.62.11-.16.06-.28.16-.28.3s.1.25.25.25c.09,0,.15-.04.25-.07.09-.03.19-.06.34-.06.3,0,.37.16.37.44v.09h-.43c-.62,0-.96.28-.96.73v.03c0,.46.3.76.87.76.21,0,.48-.04.67-.2.03.06.09.1.15.14.08.05.17.07.26.07.18,0,.32-.08.32-.27,0-.09-.04-.15-.09-.19-.07-.06-.13-.11-.13-.27ZM55.59,16.88c0,.26-.16.38-.38.38-.25,0-.36-.11-.36-.29v-.03c0-.16.1-.28.39-.28h.35v.21ZM60.51,15.14c-.71,0-1.02.5-1.02,1.07v.45c0,.57.27,1.06,1.02,1.06.19,0,.44-.03.63-.1.16-.07.28-.16.28-.31s-.08-.25-.23-.25c-.09,0-.16.04-.26.08-.08.02-.19.05-.37.05-.28,0-.41-.18-.41-.47v-.1h1.16c.12,0,.22-.1.22-.23v-.2c0-.57-.28-1.06-1.01-1.06ZM60.89,16.15h-.75v-.06c0-.27.13-.43.38-.43s.37.16.37.43v.06ZM72.65,17.12h-.09c-.31,0-.38-.16-.38-.56v-.84s.37,0,.37,0c.15,0,.27-.12.27-.27s-.12-.27-.27-.27h-.37v-.33c0-.18-.15-.33-.32-.33s-.33.15-.33.33v.33h-.08c-.15,0-.27.12-.27.27s.12.27.27.27h.08v.86c0,.67.25,1.13.95,1.13h.18c.16,0,.29-.13.29-.29s-.13-.29-.29-.29ZM55.29,20.43c-.71,0-1.02.5-1.02,1.07v.45c0,.57.27,1.06,1.02,1.06.19,0,.44-.03.63-.1.16-.07.28-.16.28-.31s-.08-.25-.23-.25c-.09,0-.16.04-.26.08-.08.02-.19.05-.37.05-.28,0-.41-.18-.41-.47v-.1h1.16c.12,0,.22-.1.22-.23v-.2c0-.57-.28-1.06-1.01-1.06ZM55.68,21.44h-.75v-.06c0-.27.13-.43.38-.43s.37.16.37.43v.06ZM69.99,15.14c-.32,0-.56.1-.73.26-.03-.05-.07-.09-.11-.13-.1-.07-.21-.11-.31-.11-.19,0-.33.08-.33.27,0,.09.04.15.09.19.07.06.14.11.14.28v1.49c0,.18.15.33.33.33s.32-.15.32-.33v-1.44c.09-.12.23-.2.41-.2.29,0,.34.18.34.38v1.26c0,.18.15.33.32.33s.33-.15.33-.33v-1.34c0-.55-.2-.92-.81-.92ZM67.14,15.14c-.71,0-1.02.5-1.02,1.07v.45c0,.57.27,1.06,1.02,1.06.19,0,.44-.03.63-.1.16-.07.28-.16.28-.31s-.08-.25-.23-.25c-.09,0-.16.04-.26.08-.08.02-.19.05-.37.05-.28,0-.41-.18-.41-.47v-.1h1.16c.12,0,.22-.1.22-.23v-.2c0-.57-.28-1.06-1.01-1.06ZM67.52,16.15h-.75v-.06c0-.27.13-.43.38-.43s.37.16.37.43v.06ZM53.8,22.41h-.09c-.31,0-.38-.16-.38-.56v-.84s.37,0,.37,0c.15,0,.27-.12.27-.27s-.12-.27-.27-.27h-.37v-.33c0-.18-.15-.33-.32-.33s-.33.15-.33.33v.33h-.08c-.15,0-.27.12-.27.27s.12.27.27.27h.08v.86c0,.67.25,1.13.95,1.13h.18c.16,0,.29-.13.29-.29s-.13-.29-.29-.29ZM38.97,19.91c.32-.52.54-1.07.67-1.65l1.48-2.39c0-.05-.02-.1-.03-.15l-1.38,2.24c.09-.51.1-1.04.03-1.56l1.05-1.7s-.03-.08-.05-.12l-1.02,1.66c-.02-.15-.05-.31-.09-.46-.05-.21-.11-.41-.19-.6l.89-1.45s-.04-.07-.06-.11l-.88,1.43c-.12-.29-.25-.57-.42-.83l.81-1.31s-.05-.06-.07-.09l-.8,1.3c-.15-.24-.32-.47-.51-.68l.76-1.23s-.05-.05-.08-.08l-.76,1.23c-.18-.2-.38-.38-.59-.55l.74-1.2s-.06-.04-.09-.06l-.74,1.2c-.11-.08-.21-.16-.33-.24l.76-1.23s0,0,0,0h0s0,0,0,0c.03-.05.04-.1.02-.16-.01-.05-.05-.1-.1-.13-.17-.11-.35-.2-.53-.28l.83-1.34s-.06-.04-.09-.05l-.83,1.35c-.25-.11-.5-.2-.76-.27l.85-1.38s-.07-.02-.11-.03l-.85,1.38c-.28-.07-.56-.11-.85-.14l.9-1.46s-.07-.02-.11-.02l-.91,1.47c-.32-.02-.63-.01-.94.02l.99-1.6s-.08,0-.12,0l-1,1.62c-.37.05-.74.13-1.09.25l1.14-1.85s-.09,0-.13.01l-1.17,1.9c-.51.2-1,.47-1.44.82l1.56-2.52c-.05.01-.1.03-.15.04l-1.66,2.69c-.38.34-.71.73-.99,1.18-.27.44-.47.92-.61,1.4l-1.66,2.69c0,.05.02.1.03.15l1.56-2.52c-.11.54-.14,1.09-.08,1.64l-1.18,1.9s.03.08.05.12l1.14-1.85c.02.18.06.36.1.54.04.18.1.36.16.54l-1,1.62s.04.07.06.11l.99-1.6c.11.29.25.58.41.84l-.91,1.47s.05.06.07.09l.9-1.46c.15.24.32.47.51.68l-.86,1.39s.05.05.08.08l.86-1.39c.18.2.38.39.59.56l-.84,1.36s.06.04.09.06l.84-1.35c.11.08.22.17.33.24l-.83,1.34s-.04.11-.03.16c.01.05.05.1.1.13.17.1.35.2.53.28l-.85,1.38s.06.04.09.05l.86-1.38c.25.11.5.2.76.28l-.87,1.41s.07.02.11.03l.88-1.42c.28.07.56.12.84.15l-.92,1.48s.07.02.11.02l.92-1.5c.14.01.28.02.42.02.17,0,.35-.01.52-.03l-1,1.62s.08,0,.12,0l1.01-1.64c.37-.04.73-.12,1.08-.24l-1.14,1.85s.09,0,.13-.01l1.17-1.89c.49-.18.96-.42,1.38-.73l-1.5,2.43c.05-.01.1-.03.15-.04l1.59-2.57c.46-.38.86-.83,1.19-1.36ZM38.53,14.31l-.97,1.57s0,0,0,0c-.05-.14-.12-.28-.19-.42l-1.01,1.63c.01-.27-.03-.54-.12-.79l.82-1.32c.05.06.09.12.13.18l.89-1.45c.16.18.31.38.44.58ZM37.42,13.1c.18.14.36.3.52.47l-.88,1.42s0,0,0,0c-.08-.11-.17-.21-.26-.3l-.75,1.21c-.1-.15-.21-.29-.35-.42l.71-1.14s-.09-.07-.14-.11c.02-.03.03-.06.04-.08h0s0,0,0,0l.79-1.29c.05.03.1.07.15.11l-.84,1.36c.06.04.11.09.16.14l.85-1.37ZM37.45,11.16c.05.03.1.05.15.07l-.75,1.22s-.1-.06-.15-.08l.75-1.22ZM36.6,10.82c.22.07.44.15.65.25l-.76,1.23c.07.03.13.05.2.08l-.81,1.31c-.17-.06-.35-.1-.53-.12l.85-1.38c-.13-.04-.26-.07-.39-.1,0,0,0,0,0,0l.79-1.27ZM35.66,10.64c.24.02.49.07.73.13l-.8,1.29c.08,0,.15.02.23.04l-.92,1.49c-.27.04-.53.13-.77.26l1.12-1.81c-.15,0-.31,0-.46.02,0,0,0,0,0,0l.87-1.41ZM30.9,12.99c.53-.85,1.27-1.49,2.12-1.9l-2.85,4.62c-.02-.95.22-1.89.73-2.72ZM30.3,16.76c-.05-.23-.09-.45-.11-.68l3.17-5.12c.31-.12.64-.21.97-.27l-1.23,1.99c.13-.09.26-.16.39-.24l-1.91,3.1c0-.15.01-.3.03-.46l-1.22,1.98c-.03-.1-.06-.2-.09-.3ZM30.47,17.32l1.1-1.78s0,0,0,0c0,.22.01.43.05.65l2.47-3.99c-.21.06-.41.15-.6.25,0,0,0,0,0,0l1.1-1.79c.27-.03.55-.04.82-.03l-.91,1.47c.09-.02.18-.03.27-.04l-2.97,4.81c-.03-.09-.06-.17-.09-.26l-.91,1.47c-.14-.24-.25-.49-.35-.74ZM30.95,18.27l.87-1.41s0,0,0,0c.05.14.12.28.19.42l1.12-1.81c-.01.2,0,.4.05.61.02.07.04.13.06.19l-.92,1.49c-.05-.06-.09-.12-.13-.18l-.8,1.29c-.16-.19-.31-.38-.44-.59ZM32.05,19.49c-.18-.15-.35-.3-.52-.47l.78-1.26s0,0,0,0c.08.11.17.21.26.3l.86-1.38c.1.15.21.29.35.42l-.81,1.32s.1.07.16.11c0,0,0,0,0,0l-.75,1.21c-.05-.04-.1-.07-.15-.11l.75-1.21c-.06-.04-.11-.09-.16-.14l-.75,1.22ZM31.95,21.54s-.1-.04-.15-.07l.73-1.18s.09.05.14.08l-.73,1.18ZM32.79,21.88c-.22-.07-.44-.15-.65-.25l.73-1.19c-.07-.03-.13-.05-.2-.08l.86-1.39c.17.07.35.11.53.13l-.89,1.45c.13.04.26.07.39.1,0,0,0,0,0,0l-.76,1.24ZM33.73,22.07c-.24-.03-.48-.07-.72-.13l.78-1.26c-.08,0-.15-.02-.23-.04l.96-1.55c.08,0,.16-.02.25-.04.18-.04.35-.11.51-.2l-1.14,1.85c.15,0,.31,0,.46-.02,0,0,0,0,0,0l-.85,1.38ZM34.79,22.07c-.27.03-.54.03-.82.02l.89-1.44c-.09.02-.18.03-.27.04l2.97-4.81c.03.09.06.17.09.26l1.01-1.63c.14.23.25.48.35.73l-1.21,1.96s0,0,0,0c0-.22-.01-.43-.05-.65l-2.47,3.99c.21-.06.41-.15.6-.25,0,0,0,0,0,0l-1.09,1.77ZM36.02,21.79c-.31.11-.63.19-.96.25l1.22-1.97c-.13.09-.26.16-.39.24l1.91-3.1c0,.15-.01.3-.03.46l1.34-2.16c.04.12.08.25.11.37.05.2.08.39.1.59l-3.3,5.33ZM36.35,21.65l2.99-4.84c.05,1-.2,2-.74,2.88-.55.9-1.35,1.56-2.25,1.96ZM37.61,23.27l3.63-5.87c0-.07,0-.14,0-.2l-3.81,6.17c.06-.03.12-.06.18-.09ZM48.03,17.74c.17,0,.31-.14.31-.31v-3c0-.17-.14-.31-.32-.31-.12,0-.24.03-.31.18l-.95,1.93-.94-1.91c-.07-.14-.16-.2-.33-.2-.17,0-.32.13-.32.31v3.01c0,.17.14.31.31.31s.31-.14.31-.31v-1.85l.66,1.38c.06.13.18.19.3.19s.24-.07.3-.2l.66-1.37v1.84c0,.17.14.31.31.31ZM46.65,21.22c-.21-.12-.42-.25-.62-.37-.11-.07-.16-.16-.15-.29,0-.14.06-.23.19-.3.12-.06.25-.06.38-.05.08.01.15.04.22.08.07.04.12.1.12.2,0,.1.05.19.14.23.05.02.1.04.15.04.16.01.31-.09.33-.23,0-.06,0-.12,0-.18-.03-.23-.16-.41-.35-.55-.3-.21-.63-.26-.98-.19-.3.06-.54.21-.71.46-.12.17-.13.37-.13.57,0,.2.06.37.19.51.11.14.25.25.4.34.19.12.38.22.58.33.12.07.22.15.31.25.21.24.1.59-.2.67-.11.03-.23.03-.34,0-.18-.03-.29-.14-.33-.32-.01-.06-.01-.11-.01-.17,0-.09-.05-.17-.13-.22-.07-.05-.15-.06-.23-.05-.15.01-.27.13-.27.28,0,.06,0,.13,0,.19.03.22.11.42.27.59.23.24.52.34.89.34.05,0,.13,0,.22-.02.26-.04.49-.16.66-.37.28-.33.29-.9.02-1.26-.17-.22-.38-.39-.62-.53ZM53.05,16.14v1.26c0,.18.15.33.33.33s.33-.15.33-.33v-1.34c0-.55-.2-.92-.82-.92-.32,0-.56.1-.73.26-.03-.05-.07-.09-.11-.13-.1-.07-.21-.11-.31-.11-.19,0-.33.08-.33.27,0,.09.04.15.09.19.07.06.14.11.14.28v1.49c0,.18.15.33.33.33s.32-.15.32-.33v-1.44c.09-.12.23-.2.41-.2.29,0,.34.18.34.38ZM51.45,21.48c-.32-.07-.6-.08-.6-.31,0-.11.1-.21.33-.21.16,0,.29.03.48.1.15.04.3-.04.34-.18.04-.15-.02-.29-.17-.34-.18-.06-.37-.11-.68-.11-.49,0-.91.27-.91.79,0,.48.28.63.58.7.33.09.67.08.67.32,0,.15-.14.24-.39.24s-.37-.04-.51-.09c-.14-.05-.31.01-.36.17-.04.14.02.3.16.35.17.06.35.1.7.1.52,0,1.01-.22,1.01-.8,0-.53-.34-.66-.66-.73ZM49.65,20.43c-.12,0-.25.06-.3.22l-.45,1.42c-.19-.54-.36-1.06-.47-1.42-.04-.15-.16-.22-.28-.22-.19,0-.38.16-.31.4.15.49.47,1.35.75,2.05-.18.29-.37.34-.57.36-.2.02-.29.16-.29.31,0,.17.13.34.36.32.62-.05.95-.45,1.24-1.25l.62-1.76c.09-.25-.1-.44-.3-.44Z" fill="#fff" stroke-width="0"/></svg>