<?xml version="1.0" encoding="UTF-8"?><svg id="Logo" xmlns="http://www.w3.org/2000/svg" viewBox="0 0 192.76 92.13"><path d="M88.98,32.25c.69,0,1.56-.1,2.23-.35.57-.24,1.01-.59,1.01-1.09s-.3-.9-.83-.9c-.33,0-.55.14-.94.28-.29.09-.69.19-1.32.19-1,0-1.47-.64-1.47-1.68v-.35h4.14c.43,0,.8-.35.8-.83v-.71c0-2.04-1.01-3.78-3.62-3.78s-3.65,1.78-3.65,3.81v1.61c0,2.03.95,3.79,3.65,3.79ZM87.67,26.4c0-.97.45-1.54,1.37-1.54s1.32.55,1.32,1.54v.22h-2.68v-.22ZM80.48,63.62c-.74-.44-1.48-.88-2.22-1.34-.38-.23-.55-.57-.53-1.04.02-.5.23-.84.66-1.06.43-.22.9-.23,1.36-.16.28.04.55.14.8.27.27.14.41.37.41.7,0,.37.17.66.51.81.17.08.36.13.55.15.57.05,1.1-.32,1.18-.82.03-.21.03-.44,0-.66-.11-.84-.56-1.47-1.24-1.95-1.06-.74-2.24-.92-3.48-.68-1.06.2-1.93.73-2.55,1.64-.42.62-.47,1.32-.46,2.04.01.7.23,1.3.68,1.84.41.49.88.89,1.42,1.22.68.41,1.37.79,2.06,1.19.42.25.8.54,1.12.91.75.85.37,2.1-.72,2.39-.4.11-.81.11-1.21.03-.64-.12-1.05-.5-1.18-1.14-.04-.2-.04-.4-.05-.6-.03-.34-.17-.6-.46-.79-.25-.16-.53-.21-.82-.19-.54.05-.95.47-.97,1.02,0,.23,0,.47.03.7.09.8.4,1.51.95,2.09.82.86,1.85,1.2,3.16,1.21.16-.02.47-.03.78-.08.94-.16,1.73-.58,2.35-1.32.98-1.19,1.04-3.2.08-4.48-.6-.8-1.37-1.39-2.22-1.89ZM80.03,30.34c-.4.11-.81.11-1.21.03-.64-.12-1.05-.5-1.18-1.14-.04-.2-.04-.4-.05-.6-.03-.34-.17-.6-.46-.79-.25-.16-.53-.21-.82-.19-.54.05-.95.47-.97,1.02,0,.23,0,.47.03.7.09.8.4,1.51.95,2.09.82.86,1.85,1.2,3.16,1.21.16-.02.47-.03.78-.08.94-.16,1.73-.58,2.35-1.32.98-1.19,1.04-3.2.08-4.48-.6-.8-1.37-1.39-2.22-1.89-.74-.44-1.48-.88-2.22-1.34-.38-.23-.55-.57-.53-1.04.02-.5.23-.84.66-1.06.43-.22.9-.23,1.36-.16.28.04.55.14.8.27.27.14.41.37.41.7,0,.37.17.66.51.81.17.08.36.13.55.15.57.05,1.1-.32,1.18-.82.03-.21.03-.44,0-.66-.11-.84-.56-1.47-1.24-1.95-1.06-.74-2.24-.92-3.48-.68-1.06.2-1.93.73-2.55,1.64-.42.62-.47,1.32-.46,2.04.01.7.23,1.3.68,1.84.41.49.88.89,1.42,1.22.68.41,1.37.79,2.06,1.19.42.25.8.54,1.12.91.75.85.37,2.1-.72,2.39ZM94.75,25.78v5.32c0,.64.52,1.16,1.18,1.16s1.16-.52,1.16-1.16v-5.14c.31-.43.81-.71,1.46-.71,1.02,0,1.21.64,1.21,1.35v4.5c0,.64.52,1.16,1.16,1.16s1.18-.52,1.18-1.16v-4.78c0-1.96-.73-3.27-2.91-3.27-1.14,0-1.99.35-2.62.94-.1-.17-.24-.33-.38-.45-.35-.24-.75-.38-1.11-.38-.68,0-1.16.29-1.16.97,0,.31.14.54.33.67.26.23.5.4.5.99ZM121.85,25.78v5.32c0,.64.52,1.16,1.18,1.16s1.16-.52,1.16-1.16v-4.81c.23-.73.8-1,1.49-1,.53,0,.69.09.99.09.73,0,1.11-.55,1.11-1.14,0-.78-.78-1.16-1.56-1.16-.55,0-1.61.12-2.39,1.09-.35-.57-.97-1-1.63-1-.73,0-1.18.31-1.18.97,0,.31.14.54.33.67.26.23.5.4.5.99ZM116.93,45.9v.67c0,2.51.76,3.93,3.15,3.93.62,0,1.33-.23,1.85-.54v.43c0,1.35-.67,1.92-1.85,1.92-.54,0-.85-.09-1.13-.19-.28-.09-.45-.19-.69-.19-.54,0-.95.42-.95.93,0,.45.31.76.75.97.67.3,1.63.36,2.18.36,2.55,0,4.04-1.4,4.04-3.97v-7.14c0-.64-.45-1.18-1.18-1.18-.55,0-.93.31-1.09.73-.5-.43-1.2-.73-1.92-.73-2.29,0-3.15,1.49-3.15,3.97ZM119.28,45.55c0-1.07.38-1.64,1.33-1.64.4,0,.93.21,1.32.57v3.58c-.4.31-.97.47-1.33.47-1,0-1.32-.52-1.32-1.58v-1.4ZM91.89,45.69c-2.22,0-3.43,1-3.43,2.61v.12c0,1.64,1.06,2.72,3.12,2.72.76,0,1.72-.16,2.39-.73.12.21.33.36.52.49.3.17.61.24.92.24.66,0,1.14-.28,1.14-.95,0-.33-.16-.54-.33-.69-.26-.22-.45-.38-.45-.97v-2.89c0-2.6-.95-3.71-3.46-3.71-.59,0-1.49.09-2.22.38-.57.23-1.01.57-1.01,1.07s.36.88.9.88c.31,0,.54-.14.9-.26.31-.12.68-.22,1.23-.22,1.06,0,1.32.57,1.32,1.58v.33h-1.54ZM93.43,48.13c0,.92-.55,1.37-1.35,1.37-.88,0-1.3-.38-1.3-1.02v-.12c0-.57.35-.99,1.39-.99h1.26v.76ZM85.42,51.2c.61,0,1.09-.48,1.09-1.11v-10.72c0-.61-.48-1.11-1.13-1.11-.43,0-.85.12-1.11.64l-3.38,6.87-3.34-6.81c-.24-.5-.57-.71-1.16-.71-.62,0-1.13.47-1.13,1.11v10.74c0,.61.48,1.09,1.09,1.09s1.09-.48,1.09-1.09v-6.6l2.36,4.92c.22.47.64.69,1.07.69s.85-.24,1.07-.71l2.36-4.9v6.58c0,.61.49,1.11,1.11,1.11ZM104.45,31.89c.61.21,1.26.36,2.51.36,1.85,0,3.62-.8,3.62-2.86,0-1.89-1.21-2.37-2.36-2.61-1.14-.26-2.13-.3-2.13-1.09,0-.4.36-.74,1.18-.74.59,0,1.04.12,1.7.35.52.16,1.06-.14,1.21-.64.16-.52-.09-1.04-.62-1.23-.66-.22-1.32-.38-2.42-.38-1.73,0-3.24.95-3.24,2.81,0,1.7,1,2.24,2.06,2.49,1.18.31,2.41.28,2.41,1.16,0,.52-.5.85-1.39.85s-1.32-.14-1.82-.33c-.5-.17-1.09.05-1.28.62-.14.48.07,1.07.57,1.25ZM129.95,41.93c-2.53,0-3.65,1.78-3.65,3.81v1.61c0,2.03.95,3.79,3.65,3.79.69,0,1.56-.1,2.23-.35.57-.24,1.01-.59,1.01-1.09s-.3-.9-.83-.9c-.33,0-.55.14-.94.28-.29.09-.69.19-1.32.19-1,0-1.47-.64-1.47-1.68v-.35h4.14c.43,0,.8-.35.8-.83v-.71c0-2.04-1.01-3.78-3.62-3.78ZM131.32,45.52h-2.68v-.22c0-.97.45-1.54,1.37-1.54s1.32.55,1.32,1.54v.22ZM153.62,41.93c-2.53,0-3.65,1.78-3.65,3.81v1.61c0,2.03.95,3.79,3.65,3.79.69,0,1.56-.1,2.23-.35.57-.24,1.01-.59,1.01-1.09s-.3-.9-.83-.9c-.33,0-.55.14-.94.28-.29.09-.69.19-1.32.19-1,0-1.47-.64-1.47-1.68v-.35h4.14c.43,0,.8-.35.8-.83v-.71c0-2.04-1.01-3.78-3.62-3.78ZM154.99,45.52h-2.68v-.22c0-.97.45-1.54,1.37-1.54s1.32.55,1.32,1.54v.22ZM119.58,28.58v-1.85c0-2.01-1.14-3.69-3.72-3.69s-3.72,1.68-3.72,3.69v1.85c0,2.01,1.14,3.67,3.72,3.67s3.72-1.66,3.72-3.67ZM117.24,28.57c0,1.02-.43,1.59-1.39,1.59s-1.37-.57-1.37-1.59v-1.82c0-1.02.43-1.59,1.37-1.59s1.39.57,1.39,1.59v1.82ZM126.42,60.82c-1.14,0-2.01.36-2.63.97-.43-.61-1.16-.97-2.3-.97s-1.94.35-2.56.9c-.1-.16-.24-.29-.38-.42-.35-.24-.74-.38-1.11-.38-.68,0-1.16.29-1.16.97,0,.31.14.54.33.67.26.23.5.4.5.99v5.32c0,.64.52,1.16,1.18,1.16s1.16-.52,1.16-1.16v-5.18c.31-.42.8-.67,1.4-.67,1.01,0,1.21.64,1.21,1.35v4.5c0,.64.52,1.16,1.16,1.16s1.18-.52,1.18-1.16v-4.8c0-.12-.02-.24-.03-.35.31-.42.8-.71,1.44-.71,1.01,0,1.2.64,1.2,1.35v4.5c0,.64.54,1.16,1.16,1.16.66,0,1.18-.52,1.18-1.16v-4.8c0-1.96-.73-3.26-2.91-3.26ZM145.03,41.93c-1.14,0-2.01.36-2.63.97-.43-.61-1.16-.97-2.3-.97s-1.94.35-2.56.9c-.1-.16-.24-.29-.38-.42-.35-.24-.75-.38-1.11-.38-.68,0-1.16.29-1.16.97,0,.31.14.54.33.67.26.23.5.4.5.99v5.32c0,.64.52,1.16,1.18,1.16s1.16-.52,1.16-1.16v-5.18c.31-.42.8-.67,1.4-.67,1,0,1.21.64,1.21,1.35v4.5c0,.64.52,1.16,1.16,1.16s1.18-.52,1.18-1.16v-4.8c0-.12-.02-.24-.03-.35.31-.42.8-.71,1.44-.71,1,0,1.19.64,1.19,1.35v4.5c0,.64.54,1.16,1.16,1.16.66,0,1.18-.52,1.18-1.16v-4.8c0-1.96-.73-3.26-2.91-3.26ZM173.31,48.98h-.33c-1.11,0-1.37-.59-1.37-2.01l-.02-3.01h1.33c.54,0,.97-.43.97-.95s-.43-.97-.97-.97h-1.33v-1.18c0-.64-.52-1.18-1.16-1.18s-1.18.54-1.18,1.18v1.18h-.28c-.52,0-.95.43-.95.97s.43.95.95.95h.28v3.07c0,2.41.9,4.02,3.39,4.02h.66c.55,0,1.02-.47,1.02-1.04s-.47-1.02-1.02-1.02ZM163.82,41.93c-1.14,0-1.99.35-2.62.94-.1-.17-.24-.33-.38-.45-.35-.24-.75-.38-1.11-.38-.68,0-1.16.29-1.16.97,0,.31.14.54.33.67.26.23.5.4.5.99v5.32c0,.64.52,1.16,1.18,1.16s1.16-.52,1.16-1.16v-5.14c.31-.43.81-.71,1.46-.71,1.02,0,1.21.64,1.21,1.35v4.5c0,.64.52,1.16,1.16,1.16s1.18-.52,1.18-1.16v-4.78c0-1.96-.73-3.27-2.91-3.27ZM97.62,64.56c-1.14-.26-2.13-.3-2.13-1.09,0-.4.36-.74,1.18-.74.59,0,1.04.12,1.7.35.52.16,1.06-.14,1.21-.64.16-.52-.09-1.04-.62-1.23-.66-.22-1.32-.38-2.42-.38-1.73,0-3.24.95-3.24,2.81,0,1.7,1,2.24,2.06,2.49,1.18.31,2.41.28,2.41,1.16,0,.52-.5.85-1.39.85s-1.32-.14-1.82-.33c-.5-.17-1.09.05-1.28.62-.14.48.07,1.07.57,1.25.61.21,1.26.36,2.51.36,1.85,0,3.62-.8,3.62-2.86,0-1.89-1.21-2.37-2.36-2.61ZM114.73,48.53v-2.89c0-2.6-.95-3.71-3.46-3.71-.59,0-1.49.09-2.22.38-.57.23-1.01.57-1.01,1.07s.36.88.9.88c.31,0,.54-.14.9-.26.31-.12.68-.22,1.23-.22,1.06,0,1.32.57,1.32,1.58v.33h-1.54c-2.22,0-3.43,1-3.43,2.61v.12c0,1.64,1.06,2.72,3.12,2.72.76,0,1.72-.16,2.39-.73.12.21.33.36.52.49.3.17.61.24.92.24.66,0,1.14-.28,1.14-.95,0-.33-.16-.54-.33-.69-.26-.22-.45-.38-.45-.97ZM112.39,48.13c0,.92-.55,1.37-1.35,1.37-.88,0-1.3-.38-1.3-1.02v-.12c0-.57.35-.99,1.39-.99h1.26v.76ZM102.12,44.13c1.02,0,1.21.64,1.21,1.35v4.5c0,.64.52,1.16,1.16,1.16s1.18-.52,1.18-1.16v-4.78c0-1.96-.73-3.27-2.91-3.27-1.14,0-1.99.35-2.61.94-.1-.17-.24-.33-.38-.45-.35-.24-.74-.38-1.11-.38-.68,0-1.16.29-1.16.97,0,.31.14.54.33.67.26.23.5.4.5.99v5.32c0,.64.52,1.16,1.18,1.16s1.16-.52,1.16-1.16v-5.14c.31-.43.81-.71,1.45-.71ZM91.2,60.82c-.43,0-.9.23-1.06.78l-1.61,5.07c-.69-1.92-1.28-3.79-1.68-5.06-.14-.54-.55-.8-.99-.8-.68,0-1.37.55-1.11,1.42.54,1.75,1.66,4.81,2.68,7.33-.64,1.04-1.33,1.23-2.04,1.28-.73.07-1.04.59-1.04,1.11,0,.61.47,1.21,1.3,1.14,2.22-.17,3.39-1.61,4.42-4.45l2.2-6.27c.33-.9-.35-1.56-1.07-1.56ZM111.34,60.82c-2.53,0-3.65,1.78-3.65,3.81v1.61c0,2.03.95,3.79,3.65,3.79.69,0,1.56-.1,2.23-.35.57-.24,1.01-.59,1.01-1.09s-.3-.9-.83-.9c-.33,0-.55.14-.94.28-.29.09-.69.19-1.32.19-1,0-1.47-.64-1.47-1.68v-.35h4.14c.43,0,.8-.35.8-.83v-.71c0-2.04-1.01-3.78-3.62-3.78ZM112.71,64.41h-2.68v-.22c0-.97.45-1.54,1.37-1.54s1.32.55,1.32,1.54v.22ZM106.01,67.87h-.33c-1.11,0-1.37-.59-1.37-2.01l-.02-3.01h1.33c.54,0,.97-.43.97-.95s-.43-.97-.97-.97h-1.33v-1.18c0-.64-.52-1.18-1.16-1.18s-1.18.54-1.18,1.18v1.18h-.28c-.52,0-.95.43-.95.97s.43.95.95.95h.28v3.07c0,2.41.9,4.02,3.4,4.02h.66c.55,0,1.02-.47,1.02-1.04s-.47-1.02-1.02-1.02Z" fill="#fff" stroke-width="0"/><path d="M54.33,26.9l3.45-5.63h0c-12.17-7.46-28.09-3.63-35.55,8.54-7.46,12.17-3.63,28.09,8.54,35.55l-3.36,5.5h0c12.13,7.43,27.97,3.62,35.4-8.51,7.42-12.12,3.64-28.03-8.48-35.46Z" fill="#fff" opacity=".1" stroke-width="0"/><path d="M51.17,32.1l3.16-5.19c-9.06-5.55-20.91-2.7-26.46,6.36-5.55,9.06-2.7,20.91,6.36,26.46l-3.43,5.61c9.18,5.62,21.19,2.74,26.81-6.44,5.62-9.18,2.74-21.18-6.44-26.8Z" fill="#fff" opacity=".3" stroke-width="0"/><path d="M47.82,37.58l.03-.09.92-1.5,2.39-3.9c-6.21-3.8-14.32-1.85-18.12,4.35-3.8,6.21-1.85,14.32,4.35,18.12h0l.05-.06-3.21,5.24c6.12,3.75,14.11,1.83,17.86-4.3,3.74-6.12,1.83-14.11-4.28-17.87Z" fill="#fff" opacity=".5" stroke-width="0"/><path d="M44.68,42.68h0s3.13-5.11,3.13-5.11c-3.18-1.95-7.33-.95-9.28,2.23-1.95,3.18-.95,7.33,2.23,9.28h.01s-3.35,5.47-3.35,5.47c3.24,2.01,7.47.98,9.46-2.31,1.98-3.29,1.04-7.54-2.2-9.56Z" fill="#fff" stroke-width="0"/><path d="M60.71,43.98c-1.21-5.01-4.22-9.28-8.49-12.12l2.78-4.54s0,0,0,0h0s0,0,0,0c.11-.18.14-.39.09-.59-.05-.2-.18-.38-.35-.49-9.42-5.77-21.78-2.8-27.54,6.62-2.79,4.56-3.64,9.94-2.4,15.14,1.19,4.95,4.16,9.16,8.37,11.96l-3.05,4.97c-.11.18-.14.39-.09.59.05.2.18.38.35.49,3.3,2.02,6.95,2.98,10.56,2.98,6.83,0,13.51-3.44,17.33-9.68,2.83-4.62,3.69-10.06,2.43-15.33ZM56.94,58.49c-5.25,8.57-16.34,11.42-25.05,6.58l5.81-9.48c1.58.77,3.36.97,5.08.55,2-.48,3.7-1.73,4.77-3.51,2.2-3.65,1.1-8.42-2.46-10.63l-.83,1.34c2.83,1.76,3.7,5.57,1.94,8.48-.85,1.42-2.2,2.41-3.79,2.79-1.57.38-3.2.11-4.58-.74-.18-.11-.39-.14-.6-.1-.2.05-.38.18-.49.36l-2.75,4.49c-3.85-2.59-6.57-6.45-7.66-10.99-1.15-4.79-.37-9.75,2.21-13.95,5.18-8.45,16.12-11.27,24.7-6.5l-5.72,9.34c-3.43-1.64-7.63-.45-9.67,2.87-1.05,1.72-1.37,3.74-.9,5.69.47,1.96,1.67,3.61,3.39,4.66l.82-1.34c-1.36-.83-2.31-2.14-2.68-3.69s-.12-3.15.71-4.5c1.72-2.8,5.39-3.68,8.19-1.97.37.23.85.11,1.08-.26h0s0,0,0,0l2.92-4.77c3.91,2.62,6.67,6.54,7.78,11.14,1.17,4.86.37,9.88-2.24,14.14Z" fill="#fff" stroke-width="0"/></svg>